<svg xmlns="http://www.w3.org/2000/svg" width="516" height="523" viewBox="0 0 516 523" fill="none"><g opacity="0.64"><path opacity="0.64" d="M360.488 104.688C360.183 104.685 359.888 104.585 359.645 104.401C359.403 104.216 359.226 103.959 359.142 103.666C358.926 102.93 358.72 102.19 358.524 101.447C358.43 101.084 358.483 100.698 358.672 100.375C358.861 100.051 359.172 99.8159 359.534 99.721C359.897 99.6262 360.282 99.6793 360.605 99.8688C360.929 100.058 361.164 100.369 361.258 100.732C361.445 101.447 361.645 102.16 361.852 102.868C361.913 103.079 361.925 103.302 361.886 103.518C361.847 103.734 361.758 103.938 361.627 104.114C361.496 104.29 361.325 104.433 361.129 104.532C360.933 104.63 360.716 104.682 360.497 104.682L360.488 104.688Z" fill="#91B3FA"></path><path opacity="0.64" d="M358.33 95.171C357.995 95.1705 357.671 95.0508 357.415 94.8332C357.16 94.6156 356.99 94.3143 356.936 93.983C356.688 92.4421 356.481 90.8731 356.322 89.3227C356.303 89.1379 356.321 88.9512 356.375 88.7733C356.428 88.5953 356.516 88.4296 356.633 88.2857C356.75 88.1417 356.895 88.0223 357.058 87.9342C357.222 87.8462 357.401 87.7912 357.586 87.7724C357.77 87.7536 357.957 87.7715 358.135 87.8249C358.312 87.8783 358.478 87.9662 358.622 88.0836C358.766 88.201 358.885 88.3457 358.973 88.5092C359.061 88.6728 359.116 88.8521 359.134 89.0369C359.286 90.5312 359.485 92.0442 359.726 93.531C359.786 93.901 359.696 94.2797 359.477 94.5837C359.258 94.8877 358.928 95.0922 358.558 95.1523C358.483 95.1649 358.406 95.1712 358.33 95.171ZM357.324 83.1028C356.951 83.1028 356.594 82.955 356.329 82.6918C356.065 82.4286 355.916 82.0714 355.914 81.6981V81.1864C355.914 79.8041 355.949 78.3958 356.02 77.0005C356.042 76.6279 356.21 76.279 356.487 76.0299C356.765 75.7808 357.13 75.6516 357.502 75.6706C357.874 75.6896 358.224 75.8551 358.475 76.1312C358.726 76.4073 358.858 76.7714 358.841 77.1443C358.772 78.4929 358.737 79.8527 358.737 81.1864V81.6795C358.738 81.8651 358.703 82.0493 358.633 82.2213C358.563 82.3933 358.46 82.5499 358.33 82.682C358.2 82.8142 358.044 82.9194 357.874 82.9916C357.703 83.0638 357.519 83.1015 357.334 83.1028H357.324ZM358.168 71.0233C358.099 71.0238 358.029 71.0188 357.961 71.0084C357.777 70.9816 357.601 70.919 357.442 70.8239C357.282 70.7289 357.143 70.6033 357.033 70.4545C356.922 70.3057 356.841 70.1364 356.796 69.9565C356.751 69.7765 356.741 69.5894 356.768 69.4058C356.994 67.8592 357.27 66.3014 357.584 64.7772C357.66 64.4099 357.878 64.0878 358.192 63.8819C358.505 63.6759 358.887 63.6029 359.254 63.6789C359.621 63.755 359.943 63.9738 360.148 64.2873C360.354 64.6008 360.427 64.9833 360.351 65.3507C360.047 66.8207 359.782 68.3224 359.564 69.8148C359.514 70.1503 359.346 70.457 359.09 70.6788C358.834 70.9006 358.507 71.0229 358.168 71.0233ZM360.834 59.211C360.613 59.2109 360.395 59.1588 360.197 59.0589C360 58.959 359.829 58.8141 359.697 58.6359C359.566 58.4577 359.478 58.2511 359.441 58.0327C359.404 57.8144 359.418 57.5903 359.483 57.3786C359.943 55.8844 360.454 54.3901 361.002 52.9313C361.142 52.5917 361.408 52.3199 361.744 52.1733C362.081 52.0266 362.461 52.0167 362.804 52.1455C363.148 52.2743 363.428 52.5319 363.585 52.8636C363.742 53.1954 363.764 53.5753 363.647 53.9231C363.119 55.3352 362.626 56.7791 362.184 58.2192C362.094 58.5067 361.914 58.7579 361.671 58.9363C361.429 59.1147 361.136 59.2109 360.834 59.211ZM365.287 47.9534C365.072 47.9539 364.86 47.9047 364.667 47.8096C364.501 47.7281 364.352 47.6146 364.229 47.4755C364.106 47.3364 364.012 47.1744 363.952 46.9988C363.892 46.8233 363.867 46.6376 363.879 46.4523C363.89 46.2671 363.938 46.086 364.02 45.9193C364.705 44.5166 365.442 43.1175 366.209 41.754C366.393 41.4273 366.699 41.1872 367.06 41.0865C367.421 40.9858 367.807 41.0327 368.134 41.217C368.46 41.4013 368.7 41.7078 368.801 42.0691C368.901 42.4305 368.854 42.817 368.67 43.1437C367.924 44.4512 367.218 45.8091 366.558 47.1615C366.442 47.4003 366.261 47.6017 366.037 47.7427C365.812 47.8838 365.552 47.9587 365.287 47.959V47.9534ZM371.43 37.514C371.172 37.5143 370.918 37.4437 370.697 37.3097C370.477 37.1758 370.297 36.9837 370.177 36.7543C370.058 36.525 370.004 36.2673 370.021 36.0093C370.038 35.7513 370.125 35.5029 370.273 35.2912C371.167 34.0099 372.109 32.7397 373.072 31.5163C373.307 31.2309 373.645 31.049 374.012 31.0096C374.38 30.9703 374.748 31.0766 375.038 31.3058C375.328 31.535 375.517 31.8689 375.564 32.2357C375.611 32.6026 375.512 32.9733 375.289 33.2683C374.356 34.4488 373.449 35.6741 372.587 36.9107C372.458 37.0983 372.285 37.2517 372.084 37.3578C371.882 37.4638 371.658 37.5194 371.43 37.5196V37.514ZM379.098 28.1448C378.821 28.1447 378.551 28.0633 378.32 27.9107C378.089 27.7582 377.908 27.5411 377.8 27.2865C377.691 27.0319 377.659 26.7509 377.709 26.4785C377.758 26.2061 377.886 25.9541 378.077 25.754C379.156 24.6332 380.281 23.5125 381.421 22.4535C381.556 22.3213 381.716 22.2174 381.891 22.148C382.067 22.0786 382.254 22.0451 382.443 22.0494C382.631 22.0538 382.817 22.0958 382.989 22.1732C383.161 22.2505 383.316 22.3616 383.444 22.4998C383.573 22.638 383.673 22.8006 383.737 22.978C383.802 23.1553 383.83 23.3438 383.821 23.5324C383.812 23.721 383.765 23.9058 383.683 24.0759C383.602 24.2461 383.487 24.3981 383.345 24.523C382.244 25.5485 381.16 26.6188 380.119 27.6984C379.989 27.8396 379.831 27.9526 379.655 28.0304C379.48 28.1081 379.29 28.149 379.098 28.1504V28.1448ZM388.106 20.0589C387.811 20.059 387.523 19.9667 387.283 19.7948C387.043 19.623 386.863 19.3802 386.768 19.1006C386.672 18.821 386.667 18.5186 386.753 18.2359C386.838 17.9531 387.01 17.7043 387.243 17.5242C388.481 16.5734 389.761 15.647 391.048 14.7728C391.359 14.5623 391.739 14.4837 392.107 14.5542C392.475 14.6248 392.8 14.8388 393.011 15.1492C393.221 15.4596 393.3 15.8408 393.229 16.2092C393.159 16.5775 392.945 16.9027 392.635 17.1132C391.392 17.9575 390.158 18.8504 388.964 19.7675C388.719 19.9587 388.417 20.0632 388.106 20.0645V20.0589ZM398.235 13.4485C397.922 13.448 397.618 13.3432 397.37 13.1509C397.123 12.9585 396.947 12.6893 396.869 12.3856C396.791 12.082 396.816 11.7611 396.941 11.4734C397.065 11.1857 397.281 10.9474 397.556 10.7962C398.922 10.049 400.327 9.32802 401.734 8.66119C402.072 8.50044 402.461 8.48088 402.814 8.60681C403.167 8.73274 403.455 8.99384 403.616 9.33269C403.776 9.67153 403.796 10.0604 403.67 10.4136C403.544 10.7669 403.283 11.0557 402.945 11.2164C401.586 11.8608 400.23 12.5538 398.914 13.2711C398.706 13.3862 398.472 13.4472 398.235 13.4485ZM472.423 12.7593C472.195 12.7589 471.971 12.7038 471.768 12.5986C470.438 11.9001 469.068 11.2332 467.697 10.6131C467.524 10.5393 467.367 10.4317 467.237 10.2966C467.106 10.1615 467.003 10.0017 466.935 9.82653C466.867 9.65133 466.834 9.46426 466.839 9.27626C466.844 9.08826 466.886 8.90312 466.963 8.73168C467.041 8.56023 467.151 8.40592 467.289 8.27778C467.426 8.14964 467.588 8.05024 467.764 7.98541C467.941 7.92057 468.128 7.89161 468.316 7.9002C468.503 7.9088 468.688 7.95478 468.857 8.03546C470.279 8.678 471.699 9.36911 473.08 10.0901C473.36 10.2372 473.582 10.4737 473.711 10.7619C473.841 11.0501 473.87 11.3734 473.794 11.6802C473.719 11.987 473.543 12.2596 473.294 12.4545C473.046 12.6494 472.739 12.7554 472.423 12.7555V12.7593ZM409.254 8.4632C408.922 8.46315 408.6 8.34577 408.345 8.13172C408.091 7.91766 407.92 7.62065 407.863 7.29291C407.805 6.96517 407.866 6.6277 408.032 6.33988C408.199 6.05206 408.462 5.83232 408.775 5.71932C410.238 5.19071 411.736 4.6976 413.227 4.25492C413.405 4.20218 413.591 4.18503 413.776 4.20446C413.961 4.22389 414.139 4.27951 414.302 4.36814C414.466 4.45677 414.61 4.57668 414.726 4.72102C414.843 4.86537 414.93 5.03132 414.983 5.2094C415.036 5.38748 415.053 5.5742 415.033 5.75891C415.014 5.94361 414.958 6.12269 414.87 6.2859C414.781 6.44911 414.662 6.59327 414.517 6.71014C414.373 6.82701 414.207 6.91431 414.029 6.96704C412.593 7.39292 411.148 7.86735 409.737 8.37914C409.583 8.4367 409.419 8.46642 409.254 8.46693V8.4632ZM461.303 7.98503C461.149 7.985 460.996 7.95976 460.85 7.91032C459.424 7.42467 457.967 6.97639 456.519 6.57853C456.333 6.53543 456.159 6.45534 456.005 6.34306C455.852 6.23078 455.722 6.08862 455.625 5.9251C455.528 5.76159 455.464 5.58008 455.439 5.39147C455.413 5.20285 455.426 5.01101 455.476 4.82743C455.526 4.64386 455.613 4.47234 455.731 4.32315C455.849 4.17396 455.996 4.05018 456.163 3.95922C456.33 3.86826 456.514 3.81199 456.703 3.7938C456.893 3.7756 457.084 3.79585 457.265 3.85333C458.758 4.26613 460.277 4.73122 461.744 5.23181C462.061 5.33933 462.33 5.55614 462.502 5.84356C462.674 6.13098 462.739 6.47033 462.684 6.80106C462.63 7.13179 462.46 7.43239 462.204 7.64925C461.949 7.86611 461.625 7.98511 461.29 7.98503H461.303ZM420.91 5.24488C420.559 5.244 420.221 5.11248 419.962 4.87592C419.702 4.63936 419.54 4.31469 419.507 3.96511C419.474 3.61553 419.572 3.26606 419.782 2.98472C419.992 2.70338 420.299 2.51031 420.643 2.44309C422.173 2.14611 423.733 1.88274 425.275 1.68475C425.461 1.65392 425.652 1.66094 425.836 1.70539C426.02 1.74984 426.193 1.83081 426.345 1.9435C426.497 2.05619 426.625 2.1983 426.721 2.3614C426.817 2.52451 426.88 2.70527 426.905 2.89298C426.93 3.08069 426.917 3.27151 426.867 3.45412C426.817 3.63674 426.73 3.80743 426.613 3.95605C426.496 4.10468 426.35 4.22822 426.184 4.31935C426.018 4.41047 425.836 4.46733 425.648 4.48653C424.155 4.68452 422.662 4.93108 421.178 5.21873C421.09 5.23647 421 5.24523 420.91 5.24488ZM449.586 4.99272C449.504 4.99259 449.422 4.98509 449.342 4.97031C447.862 4.71254 446.356 4.49401 444.863 4.32216C444.512 4.2555 444.2 4.05836 443.988 3.77041C443.777 3.48247 443.682 3.12507 443.723 2.77009C443.764 2.41511 443.938 2.08889 444.21 1.85704C444.482 1.62519 444.831 1.50491 445.188 1.52038C446.735 1.69783 448.298 1.9257 449.834 2.1928C450.177 2.25935 450.483 2.45046 450.693 2.7293C450.903 3.00814 451.003 3.35497 450.972 3.70296C450.942 4.05094 450.785 4.37545 450.53 4.61394C450.275 4.85243 449.941 4.98802 449.592 4.99459L449.586 4.99272ZM432.927 3.8608C432.56 3.85611 432.21 3.70864 431.949 3.44963C431.689 3.19062 431.54 2.8404 431.533 2.47311C431.526 2.10583 431.663 1.75031 431.913 1.48184C432.164 1.21337 432.509 1.05302 432.875 1.03473C434.426 0.976831 436.001 0.963752 437.568 0.995506C437.943 1.00294 438.299 1.15903 438.559 1.42946C438.819 1.69988 438.96 2.06248 438.953 2.43749C438.946 2.8125 438.79 3.1692 438.519 3.42911C438.249 3.68903 437.887 3.83087 437.512 3.82344C435.995 3.79169 434.476 3.80477 432.982 3.8608H432.927Z" fill="#91B3FA"></path><path opacity="0.64" d="M480.811 17.8491C480.523 17.8493 480.242 17.7614 480.005 17.597C479.399 17.1748 478.787 16.7608 478.167 16.3549C478.007 16.2555 477.868 16.1252 477.759 15.9714C477.65 15.8177 477.573 15.6436 477.532 15.4596C477.491 15.2755 477.488 15.0851 477.521 14.8996C477.555 14.7142 477.626 14.5373 477.729 14.3795C477.832 14.2216 477.965 14.086 478.121 13.9806C478.278 13.8752 478.453 13.8021 478.638 13.7657C478.823 13.7292 479.013 13.7302 479.198 13.7684C479.382 13.8066 479.557 13.8814 479.712 13.9883C480.354 14.4092 480.99 14.8382 481.619 15.2752C481.866 15.4474 482.051 15.6938 482.148 15.9786C482.245 16.2635 482.249 16.5719 482.159 16.859C482.069 17.1462 481.89 17.397 481.647 17.5751C481.405 17.7532 481.112 17.8492 480.811 17.8491Z" fill="#91B3FA"></path></g><g opacity="0.64"><path opacity="0.64" d="M513.453 69.0377C513.12 69.0373 512.799 68.9195 512.544 68.7049C512.29 68.4903 512.119 68.1928 512.063 67.8647C511.938 67.1344 511.8 66.4059 511.654 65.6831C511.61 65.4984 511.603 65.3067 511.635 65.1194C511.666 64.9321 511.735 64.753 511.837 64.5929C511.939 64.4328 512.072 64.2949 512.229 64.1875C512.385 64.0801 512.562 64.0053 512.748 63.9677C512.934 63.93 513.125 63.9302 513.311 63.9683C513.497 64.0064 513.674 64.0816 513.83 64.1894C513.986 64.2972 514.119 64.4354 514.221 64.5958C514.322 64.7561 514.391 64.9354 514.422 65.1227C514.575 65.8699 514.715 66.6282 514.847 67.3847C514.879 67.5677 514.874 67.7551 514.833 67.9363C514.792 68.1175 514.716 68.2888 514.61 68.4406C514.503 68.5924 514.367 68.7216 514.21 68.8208C514.053 68.9201 513.878 68.9874 513.696 69.0191C513.615 69.0317 513.534 69.0379 513.453 69.0377Z" fill="#91B3FA"></path><path opacity="0.64" d="M434.579 161.22H434.553C433.185 161.194 431.802 161.134 430.438 161.034L429.936 160.998C429.562 160.97 429.215 160.794 428.971 160.51C428.727 160.225 428.605 159.855 428.633 159.481C428.662 159.107 428.837 158.76 429.121 158.515C429.405 158.271 429.775 158.149 430.149 158.178L430.632 158.213C431.949 158.305 433.286 158.362 434.605 158.387C434.98 158.39 435.338 158.543 435.6 158.81C435.862 159.078 436.008 159.439 436.004 159.814C436.001 160.189 435.849 160.547 435.582 160.81C435.314 161.073 434.953 161.218 434.579 161.215V161.22ZM441.948 161.013C441.582 161.013 441.23 160.872 440.967 160.618C440.703 160.364 440.548 160.017 440.534 159.651C440.521 159.285 440.65 158.928 440.894 158.656C441.138 158.383 441.479 158.215 441.844 158.189C443.321 158.077 444.812 157.922 446.277 157.726C446.643 157.688 447.008 157.795 447.296 158.022C447.584 158.25 447.772 158.581 447.821 158.945C447.869 159.31 447.774 159.678 447.556 159.974C447.337 160.269 447.013 160.468 446.651 160.527C445.132 160.729 443.586 160.901 442.056 161.007L441.948 161.013ZM422.727 160.113C422.647 160.112 422.567 160.105 422.488 160.092C420.973 159.834 419.447 159.532 417.956 159.188C417.775 159.146 417.604 159.07 417.453 158.962C417.301 158.854 417.173 158.718 417.074 158.56C416.976 158.403 416.909 158.228 416.879 158.045C416.848 157.861 416.853 157.674 416.895 157.493C416.936 157.312 417.013 157.141 417.121 156.99C417.228 156.838 417.365 156.71 417.522 156.611C417.679 156.512 417.854 156.446 418.037 156.415C418.22 156.384 418.407 156.39 418.588 156.431C420.027 156.762 421.497 157.057 422.962 157.305C423.304 157.372 423.61 157.562 423.82 157.84C424.031 158.118 424.131 158.464 424.102 158.812C424.072 159.159 423.916 159.484 423.662 159.723C423.409 159.962 423.076 160.099 422.727 160.107V160.113ZM453.721 159.22C453.365 159.233 453.018 159.111 452.748 158.878C452.478 158.646 452.306 158.32 452.266 157.966C452.226 157.612 452.321 157.256 452.532 156.969C452.743 156.682 453.054 156.485 453.404 156.418C454.845 156.086 456.296 155.705 457.713 155.297C457.892 155.239 458.082 155.218 458.269 155.234C458.457 155.251 458.64 155.305 458.807 155.393C458.974 155.481 459.121 155.602 459.24 155.748C459.36 155.894 459.449 156.063 459.502 156.244C459.555 156.425 459.572 156.615 459.55 156.803C459.529 156.99 459.47 157.172 459.378 157.336C459.285 157.501 459.161 157.645 459.012 157.761C458.863 157.876 458.692 157.961 458.51 158.009C457.039 158.443 455.535 158.837 454.04 159.182C453.935 159.208 453.826 159.221 453.718 159.22H453.721ZM411.174 157.234C411.023 157.234 410.873 157.21 410.73 157.163C409.273 156.68 407.811 156.147 406.386 155.579C406.207 155.516 406.043 155.416 405.904 155.288C405.764 155.159 405.652 155.003 405.574 154.83C405.496 154.657 405.453 154.47 405.449 154.28C405.444 154.091 405.478 153.902 405.548 153.725C405.618 153.549 405.723 153.388 405.857 153.253C405.99 153.118 406.149 153.012 406.325 152.94C406.5 152.867 406.689 152.832 406.878 152.834C407.068 152.836 407.255 152.877 407.429 152.953C408.802 153.499 410.213 154.012 411.618 154.479C411.936 154.585 412.206 154.801 412.379 155.088C412.553 155.375 412.619 155.714 412.565 156.046C412.512 156.377 412.343 156.678 412.088 156.896C411.833 157.113 411.509 157.233 411.174 157.234ZM465.086 155.656C464.757 155.656 464.439 155.542 464.186 155.332C463.933 155.123 463.76 154.832 463.698 154.509C463.636 154.186 463.688 153.852 463.846 153.564C464.003 153.275 464.256 153.051 464.561 152.929C465.931 152.382 467.306 151.786 468.646 151.158C468.815 151.074 468.999 151.024 469.187 151.011C469.376 150.999 469.564 151.025 469.743 151.087C469.921 151.149 470.085 151.246 470.225 151.372C470.365 151.499 470.479 151.652 470.559 151.824C470.639 151.995 470.683 152.18 470.691 152.369C470.698 152.558 470.667 152.746 470.6 152.923C470.533 153.099 470.432 153.261 470.302 153.398C470.172 153.534 470.015 153.644 469.842 153.719C468.454 154.369 467.03 154.987 465.608 155.555C465.44 155.623 465.26 155.657 465.078 155.656H465.086ZM400.188 152.634C399.965 152.634 399.745 152.58 399.547 152.477C398.181 151.778 396.816 151.029 395.493 150.252C395.178 150.058 394.952 149.749 394.862 149.389C394.773 149.03 394.828 148.65 395.015 148.331C395.202 148.012 395.507 147.779 395.865 147.682C396.222 147.586 396.602 147.633 396.925 147.815C398.199 148.562 399.515 149.285 400.843 149.961C401.126 150.105 401.352 150.341 401.484 150.63C401.617 150.918 401.648 151.243 401.573 151.552C401.499 151.861 401.323 152.135 401.073 152.332C400.823 152.528 400.515 152.634 400.198 152.634H400.188ZM475.765 150.415C475.455 150.415 475.153 150.313 474.907 150.125C474.66 149.937 474.482 149.672 474.4 149.372C474.319 149.073 474.338 148.754 474.455 148.467C474.573 148.179 474.781 147.938 475.049 147.781C476.325 147.034 477.596 146.233 478.822 145.411C479.134 145.202 479.515 145.127 479.883 145.2C480.25 145.273 480.573 145.489 480.782 145.801C480.99 146.113 481.065 146.495 480.992 146.863C480.919 147.23 480.703 147.554 480.391 147.762C479.121 148.614 477.803 149.443 476.473 150.219C476.257 150.346 476.012 150.414 475.762 150.415H475.765ZM485.542 143.618C485.25 143.618 484.966 143.527 484.727 143.359C484.489 143.191 484.309 142.953 484.211 142.677C484.113 142.402 484.103 142.104 484.182 141.823C484.26 141.541 484.424 141.292 484.65 141.107C485.799 140.173 486.936 139.193 488.029 138.195C488.165 138.064 488.326 137.961 488.502 137.893C488.679 137.825 488.867 137.793 489.055 137.799C489.244 137.805 489.43 137.849 489.602 137.928C489.773 138.007 489.927 138.119 490.054 138.259C490.182 138.399 490.28 138.563 490.343 138.741C490.406 138.919 490.432 139.108 490.421 139.297C490.41 139.486 490.361 139.67 490.277 139.84C490.193 140.009 490.076 140.16 489.933 140.283C488.8 141.318 487.623 142.338 486.432 143.302C486.18 143.508 485.864 143.619 485.538 143.618H485.542ZM494.189 135.429C493.916 135.429 493.648 135.35 493.418 135.2C493.189 135.051 493.008 134.838 492.897 134.587C492.787 134.337 492.751 134.059 492.795 133.789C492.84 133.518 492.962 133.266 493.146 133.064C494.141 131.97 495.117 130.823 496.05 129.676C496.164 129.524 496.307 129.397 496.472 129.302C496.636 129.207 496.818 129.146 497.006 129.122C497.194 129.099 497.385 129.114 497.568 129.167C497.75 129.219 497.92 129.307 498.068 129.427C498.215 129.546 498.337 129.694 498.426 129.862C498.515 130.03 498.57 130.214 498.586 130.403C498.603 130.592 498.581 130.783 498.522 130.963C498.463 131.144 498.369 131.311 498.244 131.454C497.28 132.65 496.266 133.832 495.234 134.968C495.102 135.114 494.94 135.23 494.759 135.31C494.578 135.389 494.383 135.43 494.186 135.429H494.189ZM501.51 126.03C501.255 126.03 501.004 125.96 500.785 125.829C500.566 125.697 500.386 125.509 500.266 125.284C500.145 125.058 500.088 124.804 500.1 124.549C500.112 124.294 500.193 124.046 500.334 123.833C501.154 122.6 501.949 121.327 502.695 120.045C502.884 119.721 503.194 119.486 503.556 119.39C503.918 119.295 504.304 119.347 504.627 119.536C504.951 119.725 505.187 120.035 505.282 120.398C505.377 120.761 505.325 121.146 505.136 121.47C504.36 122.798 503.537 124.121 502.688 125.393C502.559 125.589 502.384 125.75 502.178 125.861C501.971 125.972 501.741 126.03 501.506 126.03H501.51ZM507.329 115.63C507.092 115.629 506.858 115.569 506.651 115.455C506.443 115.341 506.267 115.176 506.14 114.976C506.012 114.776 505.937 114.547 505.921 114.311C505.905 114.074 505.949 113.837 506.048 113.622C506.672 112.277 507.263 110.895 507.808 109.512C507.874 109.337 507.974 109.176 508.103 109.04C508.232 108.903 508.386 108.794 508.558 108.718C508.729 108.642 508.914 108.601 509.101 108.597C509.289 108.593 509.475 108.626 509.649 108.695C509.823 108.764 509.982 108.867 510.117 108.998C510.251 109.129 510.358 109.286 510.431 109.458C510.504 109.631 510.542 109.816 510.543 110.004C510.544 110.192 510.507 110.378 510.436 110.551C509.876 111.982 509.258 113.414 508.612 114.808C508.499 115.054 508.317 115.262 508.089 115.408C507.861 115.553 507.596 115.63 507.325 115.63H507.329ZM511.501 104.464C511.369 104.463 511.237 104.444 511.109 104.408C510.749 104.303 510.446 104.06 510.265 103.731C510.084 103.403 510.041 103.016 510.145 102.656C510.555 101.234 510.93 99.779 511.264 98.337C511.355 97.9793 511.581 97.6712 511.895 97.4784C512.21 97.2856 512.587 97.2233 512.946 97.305C513.306 97.3867 513.619 97.6057 513.819 97.9155C514.02 98.2252 514.091 98.601 514.019 98.9627C513.679 100.457 513.289 101.966 512.863 103.446C512.777 103.741 512.597 104 512.351 104.183C512.104 104.367 511.805 104.465 511.497 104.464H511.501ZM513.927 92.7988C513.865 92.7988 513.802 92.795 513.74 92.7876C513.556 92.7637 513.379 92.7036 513.218 92.6109C513.057 92.5182 512.916 92.3947 512.803 92.2474C512.69 92.1001 512.608 91.9319 512.56 91.7525C512.512 91.5731 512.499 91.3859 512.524 91.2018C512.71 89.7337 512.867 88.2412 512.975 86.7638C513.003 86.3898 513.178 86.042 513.461 85.797C513.745 85.5519 514.114 85.4297 514.488 85.4572C514.862 85.4847 515.209 85.6596 515.454 85.9436C515.699 86.2275 515.821 86.5971 515.793 86.9711C515.681 88.5009 515.523 90.0475 515.325 91.5679C515.281 91.9075 515.115 92.2194 514.858 92.4458C514.601 92.6722 514.271 92.7976 513.929 92.7988H513.927ZM514.584 80.9006C514.214 80.9006 513.859 80.7555 513.595 80.4964C513.331 80.2372 513.179 79.8848 513.171 79.5146C513.143 78.0353 513.072 76.5261 512.959 75.0579C512.939 74.8702 512.958 74.6806 513.013 74.5002C513.068 74.3198 513.159 74.1522 513.279 74.0074C513.4 73.8626 513.549 73.7434 513.716 73.6569C513.884 73.5704 514.067 73.5183 514.255 73.5037C514.443 73.4892 514.631 73.5124 514.81 73.572C514.989 73.6316 515.154 73.7264 515.296 73.8509C515.437 73.9754 515.553 74.1269 515.635 74.2967C515.717 74.4665 515.765 74.651 515.775 74.8394C515.892 76.371 515.961 77.9251 515.997 79.4604C516 79.646 515.967 79.8306 515.9 80.0034C515.832 80.1763 515.731 80.3341 515.603 80.4679C515.474 80.6017 515.32 80.7087 515.15 80.783C514.98 80.8572 514.797 80.8972 514.612 80.9006H514.584Z" fill="#91B3FA"></path><path opacity="0.64" d="M389.985 146.388C389.688 146.387 389.399 146.294 389.158 146.12C388.536 145.671 387.921 145.213 387.314 144.746C387.158 144.636 387.026 144.496 386.926 144.334C386.826 144.172 386.759 143.991 386.731 143.803C386.702 143.614 386.711 143.422 386.759 143.237C386.806 143.053 386.89 142.88 387.006 142.728C387.122 142.577 387.268 142.451 387.434 142.357C387.599 142.264 387.783 142.205 387.972 142.184C388.161 142.163 388.353 142.181 388.535 142.236C388.717 142.291 388.887 142.382 389.033 142.504C389.619 142.954 390.212 143.395 390.811 143.829C391.054 144.004 391.234 144.251 391.327 144.535C391.42 144.819 391.421 145.126 391.329 145.41C391.237 145.695 391.058 145.943 390.816 146.119C390.574 146.295 390.283 146.39 389.985 146.389V146.388Z" fill="#91B3FA"></path></g><path d="M393.499 124.113C393.622 124.267 393.79 124.378 393.98 124.43C394.17 124.482 394.371 124.472 394.555 124.403L405.337 120.436C409.643 123.761 414.462 126.362 419.604 128.135L422.233 139.32C422.278 139.511 422.382 139.683 422.529 139.813C422.677 139.942 422.861 140.023 423.056 140.043L436.764 141.432C436.96 141.454 437.157 141.413 437.328 141.315C437.499 141.217 437.635 141.068 437.716 140.889L442.534 130.459C447.928 129.757 453.172 128.18 458.058 125.789L467.825 131.841C467.993 131.944 468.188 131.993 468.384 131.98C468.579 131.967 468.767 131.894 468.919 131.77L479.595 123.049C479.747 122.924 479.856 122.756 479.908 122.566C479.96 122.377 479.952 122.176 479.884 121.992L475.919 111.201C479.242 106.886 481.84 102.058 483.611 96.9062L494.787 94.2726C494.979 94.2289 495.152 94.1258 495.281 93.9779C495.411 93.8299 495.491 93.6448 495.509 93.4488L496.897 79.7276C496.919 79.5317 496.878 79.3342 496.78 79.1631C496.683 78.992 496.534 78.8561 496.354 78.7749L485.934 73.954C485.233 68.5546 483.657 63.3056 481.269 58.4134L487.315 48.6371C487.418 48.4697 487.467 48.2743 487.453 48.0781C487.44 47.8819 487.367 47.6947 487.242 47.5425L478.531 36.8565C478.407 36.7044 478.239 36.5947 478.049 36.5428C477.86 36.4909 477.659 36.4994 477.475 36.567L466.693 40.5324C462.385 37.2077 457.563 34.609 452.419 32.8387L449.79 21.6671C449.745 21.4756 449.641 21.3029 449.494 21.173C449.346 21.0431 449.162 20.9624 448.967 20.9424L435.258 19.5527C435.063 19.5312 434.865 19.5723 434.694 19.6699C434.523 19.7675 434.388 19.9167 434.307 20.0962L429.494 30.517C424.1 31.2185 418.857 32.7958 413.97 35.1866L404.197 29.1385C404.03 29.035 403.835 28.9863 403.639 28.999C403.443 29.0117 403.256 29.0853 403.104 29.2095L392.428 37.9286C392.276 38.0534 392.166 38.2223 392.114 38.4121C392.063 38.6018 392.071 38.803 392.138 38.9877L396.104 49.7783C392.782 54.091 390.186 58.9175 388.417 64.0674L377.243 66.6974C377.052 66.7426 376.88 66.8462 376.751 66.9938C376.621 67.1414 376.541 67.3257 376.521 67.5211L375.131 81.2517C375.111 81.4476 375.153 81.6447 375.25 81.8158C375.347 81.9869 375.495 82.1233 375.674 82.2062L386.094 87.0271C386.796 92.426 388.371 97.6743 390.759 102.566L384.715 112.344C384.61 112.511 384.56 112.706 384.573 112.903C384.586 113.099 384.66 113.287 384.786 113.439L393.499 124.113Z" fill="url(#paint0_linear_217_1324)"></path><path opacity="0.8" d="M435.988 93.8654C432.524 93.8633 429.197 92.5175 426.704 90.1106C424.212 87.7038 422.749 84.4235 422.623 80.9593C422.496 77.4951 423.717 74.1168 426.027 71.5346C428.338 68.9524 431.559 67.3674 435.013 67.1127C438.466 66.8581 441.884 67.9537 444.548 70.1692C447.212 72.3847 448.913 75.5476 449.296 78.9929C449.678 82.4382 448.711 85.8977 446.597 88.6441C444.484 91.3904 441.389 93.2098 437.964 93.7197C437.31 93.8163 436.649 93.865 435.988 93.8654ZM436.021 69.3703C434.494 69.3687 432.982 69.6824 431.582 70.292C430.181 70.9016 428.921 71.7939 427.88 72.9131C426.84 74.0323 426.041 75.3543 425.534 76.7965C425.027 78.2388 424.823 79.7702 424.934 81.295C425.045 82.8199 425.469 84.3054 426.18 85.6586C426.891 87.0119 427.873 88.2038 429.065 89.1599C430.257 90.116 431.633 90.8157 433.107 91.2153C434.582 91.6148 436.123 91.7056 437.634 91.482C440.406 91.0716 442.922 89.627 444.675 87.4378C446.428 85.2486 447.289 82.4768 447.085 79.6786C446.882 76.8804 445.628 74.2628 443.577 72.3509C441.526 70.439 438.828 69.3742 436.025 69.3703H436.021Z" fill="white"></path><path opacity="0.8" d="M436.251 114.126C435.105 114.126 433.96 114.068 432.819 113.952C431.112 113.779 429.419 113.477 427.757 113.05L427.717 113.039L427.499 112.983H427.469H427.441L427.337 112.957H427.32L427.279 112.946H427.264L426.95 112.858L426.838 112.826C426.611 112.761 426.385 112.693 426.161 112.622C426.03 112.583 425.902 112.542 425.773 112.499C425.659 112.463 425.56 112.392 425.489 112.295C425.419 112.199 425.381 112.083 425.381 111.963C425.381 111.903 425.391 111.844 425.409 111.787C425.431 111.716 425.467 111.65 425.515 111.593C425.564 111.536 425.623 111.489 425.689 111.455C425.755 111.421 425.828 111.401 425.902 111.396C425.977 111.39 426.051 111.399 426.122 111.423C431.03 113.017 436.245 113.425 441.341 112.614C446.437 111.804 451.269 109.798 455.443 106.76C459.616 103.722 463.011 99.7392 465.352 95.1363C467.692 90.5335 468.912 85.4415 468.91 80.2767C468.91 63.7107 456.332 49.4571 439.52 47.7592C430.897 46.8853 422.279 49.476 415.563 54.9614C408.848 60.4469 404.584 68.3779 403.71 77.0098C403.11 82.8966 404.119 88.8359 406.627 94.1941C406.662 94.2697 406.68 94.3518 406.681 94.4351C406.687 94.567 406.647 94.697 406.567 94.802C406.487 94.9071 406.373 94.9805 406.244 95.0093C406.115 95.0381 405.98 95.0205 405.863 94.9595C405.746 94.8985 405.654 94.7981 405.604 94.676C403.067 89.2554 402.011 83.2582 402.544 77.296C403.078 71.3338 405.182 65.6198 408.641 60.7368C412.1 55.8538 416.791 51.9764 422.236 49.5C427.681 47.0236 433.684 46.0369 439.634 46.6404C457.028 48.4036 470.037 63.1429 470.04 80.2804C470.04 81.4186 469.983 82.5661 469.867 83.7229C468.103 101.105 453.38 114.126 436.251 114.126Z" fill="white"></path><path d="M399.332 241.717L405.885 238.695C408.752 240.563 411.903 241.951 415.216 242.804L417.42 249.678C417.457 249.796 417.53 249.899 417.629 249.972C417.728 250.046 417.847 250.087 417.97 250.089L426.625 250.276C426.749 250.278 426.87 250.242 426.972 250.173C427.074 250.103 427.152 250.003 427.194 249.887L429.693 243.114C433.037 242.406 436.243 241.156 439.184 239.414L445.602 242.719C445.712 242.775 445.836 242.796 445.959 242.778C446.081 242.76 446.195 242.705 446.284 242.62L452.536 236.626C452.625 236.54 452.685 236.429 452.709 236.308C452.732 236.187 452.716 236.061 452.665 235.949L449.636 229.38C451.504 226.512 452.891 223.357 453.741 220.041L460.611 217.837C460.729 217.798 460.832 217.723 460.906 217.623C460.979 217.522 461.02 217.401 461.021 217.276L461.208 208.613C461.208 208.491 461.171 208.372 461.102 208.272C461.032 208.172 460.934 208.095 460.819 208.053L454.053 205.552C453.345 202.205 452.096 198.997 450.356 196.052L453.657 189.628C453.714 189.519 453.734 189.394 453.716 189.272C453.699 189.15 453.644 189.036 453.559 188.947L447.57 182.687C447.485 182.598 447.373 182.538 447.252 182.515C447.13 182.493 447.005 182.508 446.893 182.56L440.339 185.583C437.473 183.714 434.321 182.326 431.009 181.473L428.805 174.6C428.767 174.481 428.692 174.377 428.592 174.303C428.491 174.228 428.37 174.188 428.245 174.187L419.59 174C419.467 173.997 419.346 174.033 419.243 174.102C419.141 174.171 419.064 174.271 419.021 174.387L416.522 181.16C413.179 181.869 409.973 183.118 407.031 184.86L400.614 181.557C400.504 181.501 400.379 181.48 400.257 181.498C400.135 181.515 400.022 181.571 399.933 181.656L393.679 187.648C393.59 187.734 393.53 187.846 393.507 187.967C393.484 188.088 393.499 188.214 393.55 188.327L396.572 194.888C394.706 197.754 393.319 200.906 392.466 204.218L385.597 206.424C385.478 206.462 385.375 206.537 385.301 206.638C385.227 206.738 385.187 206.86 385.187 206.985L385 215.648C384.999 215.769 385.036 215.889 385.105 215.989C385.174 216.089 385.272 216.166 385.386 216.208L392.153 218.707C392.861 222.054 394.109 225.263 395.849 228.207L392.55 234.633C392.494 234.742 392.473 234.867 392.49 234.989C392.508 235.112 392.564 235.225 392.649 235.314L398.636 241.572C398.72 241.668 398.834 241.734 398.959 241.76C399.085 241.787 399.215 241.772 399.332 241.717Z" fill="url(#paint1_linear_217_1324)"></path><path opacity="0.6" d="M423.1 220.476C420.972 220.477 418.924 219.662 417.377 218.199C415.829 216.736 414.899 214.737 414.778 212.61C414.657 210.483 415.353 208.39 416.724 206.76C418.095 205.131 420.037 204.088 422.152 203.846C424.267 203.604 426.394 204.181 428.097 205.459C429.8 206.737 430.95 208.618 431.312 210.718C431.673 212.817 431.218 214.976 430.04 216.75C428.863 218.525 427.051 219.781 424.978 220.261C424.362 220.404 423.732 220.476 423.1 220.476ZM423.117 205.085C421.654 205.085 420.227 205.54 419.034 206.388C417.841 207.235 416.941 208.433 416.458 209.816C415.976 211.198 415.934 212.696 416.34 214.103C416.745 215.51 417.578 216.756 418.723 217.668C419.867 218.581 421.266 219.114 422.727 219.195C424.188 219.276 425.638 218.9 426.876 218.12C428.114 217.34 429.079 216.193 429.637 214.84C430.195 213.486 430.319 211.992 429.992 210.565C429.637 209.006 428.762 207.614 427.512 206.618C426.262 205.623 424.711 205.082 423.113 205.085H423.117Z" fill="url(#paint2_linear_217_1324)"></path><g opacity="0.64"><path opacity="0.64" d="M419.79 234.336C419.527 234.336 419.267 234.271 419.036 234.145C418.804 234.02 418.607 233.839 418.463 233.618C417.989 232.894 417.53 232.143 417.088 231.388C416.891 231.026 416.843 230.6 416.954 230.203C417.066 229.805 417.328 229.467 417.685 229.26C418.041 229.052 418.465 228.992 418.865 229.093C419.265 229.193 419.61 229.446 419.827 229.797C420.236 230.503 420.669 231.203 421.113 231.881C421.269 232.12 421.358 232.397 421.37 232.683C421.382 232.968 421.317 233.252 421.182 233.503C421.046 233.754 420.845 233.965 420.6 234.111C420.355 234.258 420.075 234.335 419.79 234.336Z" fill="#BDD0FB"></path></g><path opacity="0.6" d="M423.125 233.687H422.649C421.117 233.655 419.593 233.459 418.103 233.105C417.964 233.071 417.841 232.992 417.753 232.88C417.664 232.768 417.616 232.629 417.616 232.486C417.616 232.437 417.622 232.389 417.633 232.341C417.673 232.178 417.775 232.037 417.918 231.949C418.061 231.861 418.232 231.832 418.396 231.87C419.799 232.204 421.233 232.388 422.675 232.419C428.046 232.535 433.242 230.51 437.122 226.791C441.002 223.072 443.246 217.962 443.362 212.586C443.362 212.439 443.362 212.293 443.362 212.145C443.356 206.847 441.279 201.761 437.576 197.974C433.873 194.187 428.837 192 423.544 191.879C412.372 191.61 403.098 200.535 402.857 211.71C402.857 211.858 402.857 212.005 402.857 212.151C402.854 215.668 403.768 219.124 405.507 222.18C405.562 222.275 405.591 222.383 405.591 222.493C405.592 222.634 405.546 222.77 405.461 222.881C405.376 222.993 405.256 223.073 405.121 223.109C404.986 223.145 404.842 223.135 404.713 223.081C404.584 223.027 404.477 222.931 404.408 222.809C402.56 219.565 401.589 215.896 401.59 212.162C401.59 212.005 401.59 211.849 401.59 211.693C401.694 206.01 404.039 200.598 408.113 196.637C412.187 192.676 417.659 190.488 423.338 190.548C429.017 190.609 434.442 192.915 438.43 196.962C442.419 201.009 444.647 206.47 444.63 212.155C444.63 212.31 444.63 212.467 444.63 212.624C444.508 218.253 442.189 223.611 438.17 227.55C434.151 231.49 428.75 233.697 423.125 233.701V233.687Z" fill="url(#paint3_linear_217_1324)"></path><g opacity="0.9"><path d="M18.7174 18.4619C8.07314 73.8961 -43.5114 396.845 188.207 446.978C188.207 446.978 265.589 233.592 25.0378 14.5917C22.9403 12.6771 19.4134 14.8401 18.7174 18.4619Z" fill="url(#paint4_linear_217_1324)"></path><path opacity="0.45" d="M37.5313 63.6789C39.821 79.5239 42.3963 95.341 45.0965 111.122C47.7967 126.904 50.6724 142.672 53.7011 158.4C59.7497 189.861 66.523 221.165 74.021 252.312C77.8353 267.864 81.8729 283.356 86.1338 298.79C90.4744 314.196 95.0911 329.525 100.07 344.728C105.121 359.906 110.58 374.946 116.678 389.717C122.777 404.488 129.504 419 137.549 432.743C137.746 433.099 137.797 433.519 137.69 433.912C137.582 434.305 137.326 434.641 136.975 434.847C136.624 435.054 136.206 435.115 135.811 435.017C135.416 434.92 135.074 434.671 134.86 434.325V434.316C126.776 420.354 120.084 405.687 114.008 390.821C107.932 375.955 102.542 360.812 97.5469 345.561C92.6185 330.288 88.069 314.902 83.79 299.444C79.5664 283.97 75.5954 268.433 71.8769 252.833C64.461 221.636 57.8233 190.271 51.9637 158.738C49.0041 142.983 46.205 127.199 43.5663 111.386C40.9388 95.5726 38.4364 79.7425 36.2176 63.8582C36.2021 63.6893 36.252 63.5209 36.3571 63.3878C36.4621 63.2547 36.6143 63.1671 36.782 63.1431C36.9498 63.1191 37.1203 63.1606 37.2584 63.2589C37.3965 63.3572 37.4915 63.5049 37.5239 63.6714L37.5313 63.6789Z" fill="white"></path></g><path d="M109.645 6.50948H396C411.903 6.68506 425.719 23.5948 425.708 40.8519L425.45 467.711C425.45 479.653 415.784 489.565 404.134 489.608L95.6943 490.972C84.8112 491.019 75.8838 481.909 75.8838 470.722V42.9178C75.8838 22.6496 90.9973 6.30402 109.645 6.50948Z" fill="url(#paint5_linear_217_1324)"></path><path d="M382.21 31H122.63C111.745 31 103 40.2476 103 51.1758V440.592C103 451.523 111.745 460 122.63 460H382.21C393.094 460 402 451.535 402 440.592V51.1758C402.008 40.2476 393.094 31 382.21 31Z" fill="#91B3FA"></path><path opacity="0.37" d="M287.686 347.02H217.36C214.422 347.02 212.04 349.404 212.04 352.345V422.737C212.04 425.678 214.422 428.062 217.36 428.062H287.686C290.624 428.062 293.006 425.678 293.006 422.737V352.345C293.006 349.404 290.624 347.02 287.686 347.02Z" fill="white"></path><path d="M264.501 370.749C264.501 377.335 259.166 384.446 252.584 384.446C246.002 384.446 240.669 377.335 240.669 370.749C240.669 364.163 246.004 359.488 252.584 359.488C259.164 359.488 264.501 364.161 264.501 370.749Z" fill="url(#paint6_linear_217_1324)"></path><path d="M237.797 409.808H266.886C268.378 409.808 269.831 409.333 271.037 408.453C272.242 407.572 273.136 406.331 273.591 404.908L275.156 400.013C275.712 398.286 275.581 396.411 274.789 394.779C273.997 393.146 272.607 391.883 270.907 391.253C259.069 386.919 246.835 387.476 234.291 391.652C230.777 392.822 228.829 396.583 229.797 400.158L231.003 404.606C231.407 406.099 232.292 407.418 233.52 408.358C234.748 409.298 236.251 409.808 237.797 409.808Z" fill="url(#paint7_linear_217_1324)"></path><path opacity="0.53" d="M365.453 67.7601H139.76C137.747 67.7601 136.115 69.3934 136.115 71.4081V88.8109C136.115 90.8256 137.747 92.4588 139.76 92.4588H365.453C367.466 92.4588 369.097 90.8256 369.097 88.8109V71.4081C369.097 69.3934 367.466 67.7601 365.453 67.7601Z" fill="white"></path><path d="M332.124 82.6671C331.064 74.0391 336.926 66.1949 345.215 65.1217C353.503 64.0485 361.084 70.1931 362.139 78.8211C362.406 80.956 362.245 83.1241 361.665 85.1933C361.085 87.2624 360.099 89.1891 358.767 90.8557L374.197 102.99C374.428 103.18 374.618 103.416 374.755 103.684C374.893 103.952 374.974 104.246 374.995 104.548C375.015 104.85 374.975 105.153 374.875 105.438C374.776 105.723 374.62 105.984 374.417 106.205L374.275 106.357C374.095 106.553 373.878 106.711 373.638 106.821C373.398 106.931 373.139 106.992 372.875 106.999C372.612 107.007 372.35 106.961 372.104 106.864C371.858 106.768 371.634 106.623 371.443 106.437L357.427 92.3232C355.126 94.5501 352.189 95.9676 349.045 96.3689C340.754 97.4321 333.178 91.2975 332.124 82.6671ZM348.535 92.1885C354.604 91.4123 358.899 85.657 358.125 79.3352C357.351 73.0134 351.799 68.5234 345.727 69.2996C339.656 70.0758 335.361 75.8336 336.137 82.1529C336.914 88.4722 342.461 92.9672 348.533 92.1885H348.535Z" fill="url(#paint8_linear_217_1324)"></path><path opacity="0.37" d="M378.605 235.27H307.059C304.121 235.27 301.739 237.654 301.739 240.595V312.209C301.739 315.15 304.121 317.534 307.059 317.534H378.605C381.543 317.534 383.925 315.15 383.925 312.209V240.595C383.925 237.654 381.543 235.27 378.605 235.27Z" fill="white"></path><path d="M326.631 251.742H316.89C316.767 251.742 316.668 251.842 316.668 251.965V256.487C316.668 256.609 316.767 256.709 316.89 256.709H326.631C326.754 256.709 326.853 256.609 326.853 256.487V251.965C326.853 251.842 326.754 251.742 326.631 251.742Z" fill="url(#paint9_linear_217_1324)"></path><path d="M347.35 251.089H339.386L337.428 256.709H349.048L347.35 251.089ZM340.498 252.293H346.163L347.371 256.29H339.104L340.498 252.293Z" fill="url(#paint10_linear_217_1324)"></path><path d="M372.247 255.054H312.794C312.673 255.054 312.575 255.152 312.575 255.273V295.613C312.575 295.733 312.673 295.831 312.794 295.831H372.247C372.368 295.831 372.466 295.733 372.466 295.613V255.273C372.466 255.152 372.368 255.054 372.247 255.054Z" fill="url(#paint11_linear_217_1324)"></path><path d="M353.683 278.105C355.163 271.829 351.28 265.54 345.01 264.059C338.739 262.578 332.457 266.465 330.977 272.741C329.497 279.017 333.38 285.305 339.65 286.786C345.921 288.268 352.203 284.381 353.683 278.105Z" fill="white"></path><path d="M346.219 284.377C351.149 282.333 353.49 276.675 351.448 271.74C349.406 266.805 343.753 264.462 338.823 266.506C333.893 268.55 331.552 274.208 333.594 279.143C335.636 284.078 341.288 286.421 346.219 284.377Z" fill="url(#paint12_linear_217_1324)"></path><path d="M316.737 259.324H324.17C324.188 259.324 324.206 259.331 324.219 259.344C324.231 259.357 324.239 259.375 324.239 259.393V260.822C324.239 260.84 324.231 260.858 324.219 260.871C324.206 260.884 324.188 260.891 324.17 260.891H316.737C316.719 260.891 316.701 260.884 316.688 260.871C316.675 260.858 316.668 260.84 316.668 260.822V259.393C316.668 259.374 316.675 259.356 316.689 259.343C316.702 259.33 316.72 259.322 316.739 259.322L316.737 259.324Z" fill="white"></path><path d="M367.127 258.539H359.696C359.657 258.539 359.625 258.571 359.625 258.61V260.037C359.625 260.077 359.657 260.108 359.696 260.108H367.127C367.166 260.108 367.198 260.077 367.198 260.037V258.61C367.198 258.571 367.166 258.539 367.127 258.539Z" fill="white"></path><path opacity="0.37" d="M197.784 348.172H129.226C126.287 348.172 123.905 350.556 123.905 353.498V422.121C123.905 425.062 126.287 427.446 129.226 427.446H197.784C200.722 427.446 203.104 425.062 203.104 422.121V353.498C203.104 350.556 200.722 348.172 197.784 348.172Z" fill="white"></path><path d="M143.763 376.078C146.758 397.824 157.848 408.018 172.863 412.606L181.531 405.631C165.742 399.237 154.659 387.875 149.954 369.768L143.763 376.078Z" fill="url(#paint13_linear_217_1324)"></path><path d="M172.346 412.44C181.49 413.934 182.574 414.029 190.051 409.064C190.248 408.935 190.413 408.761 190.531 408.557C190.65 408.353 190.719 408.124 190.734 407.889C190.749 407.653 190.709 407.418 190.618 407.2C190.526 406.983 190.385 406.79 190.206 406.636L176.996 395.362C176.876 395.259 176.734 395.186 176.58 395.148C176.427 395.109 176.267 395.107 176.113 395.142C175.958 395.176 175.814 395.246 175.692 395.346C175.569 395.446 175.471 395.573 175.406 395.717L173.228 400.532L172.346 412.44Z" fill="url(#paint14_linear_217_1324)"></path><path d="M143.451 376.612C142.546 368.252 142.705 366.991 147.864 360.035C148.004 359.846 148.186 359.692 148.395 359.585C148.604 359.477 148.836 359.42 149.071 359.418C149.306 359.415 149.538 359.467 149.75 359.57C149.961 359.673 150.146 359.823 150.29 360.009L160.832 373.814C160.928 373.94 160.993 374.086 161.023 374.241C161.053 374.397 161.046 374.557 161.003 374.709C160.961 374.861 160.884 375.002 160.778 375.119C160.672 375.236 160.54 375.327 160.393 375.385L155.47 377.307L144.489 377.535C144.232 377.539 143.982 377.447 143.79 377.276C143.598 377.105 143.477 376.868 143.451 376.612Z" fill="url(#paint15_linear_217_1324)"></path><path opacity="0.37" d="M288.497 233.975H217.585C214.647 233.975 212.265 236.359 212.265 239.3V310.279C212.265 313.22 214.647 315.604 217.585 315.604H288.497C291.435 315.604 293.817 313.22 293.817 310.279V239.3C293.817 236.359 291.435 233.975 288.497 233.975Z" fill="white"></path><path d="M289.969 276.969C290.778 258.508 275.294 242.834 255.385 241.96C235.476 241.087 218.681 255.344 217.873 273.805C217.064 292.266 232.548 307.94 252.457 308.814C272.366 309.687 289.161 295.43 289.969 276.969Z" fill="url(#paint16_linear_217_1324)"></path><path opacity="0.16" d="M251.989 299.77C267.626 299.77 280.303 287.784 280.303 272.998C280.303 258.213 267.626 246.226 251.989 246.226C236.351 246.226 223.674 258.213 223.674 272.998C223.674 287.784 236.351 299.77 251.989 299.77Z" fill="white"></path><g opacity="0.68"><g style="mix-blend-mode:soft-light" opacity="0.68"><path d="M263.305 275.574C263.305 278.529 263.193 281.484 262.961 284.432C262.73 287.379 262.357 290.315 261.831 293.227C261.304 296.139 260.605 299.018 259.571 301.82C259.066 303.224 258.409 304.569 257.609 305.83C257.2 306.468 256.703 307.045 256.133 307.545C255.839 307.796 255.511 308.006 255.159 308.168C254.8 308.333 254.411 308.423 254.015 308.434C253.62 308.445 253.226 308.373 252.86 308.223C252.501 308.076 252.165 307.877 251.864 307.632C251.28 307.15 250.771 306.583 250.354 305.951C249.541 304.699 248.874 303.358 248.367 301.954C247.318 299.175 246.629 296.283 246.084 293.377C245.019 287.555 244.579 281.637 244.524 275.726C244.524 272.771 244.661 269.816 244.885 266.868C245.108 263.921 245.444 260.983 245.945 258.069C246.445 255.155 247.088 252.258 248.077 249.462C248.557 248.053 249.198 246.705 249.986 245.444C250.387 244.807 250.883 244.236 251.459 243.752C251.754 243.511 252.082 243.315 252.435 243.171C252.791 243.03 253.172 242.967 253.554 242.984C253.941 242.997 254.321 243.084 254.674 243.24C255.02 243.396 255.343 243.597 255.637 243.838C256.208 244.32 256.71 244.879 257.13 245.498C257.958 246.732 258.646 248.053 259.183 249.439C260.287 252.191 261.036 255.067 261.629 257.962C262.205 260.864 262.626 263.795 262.891 266.741C263.167 269.663 263.292 272.617 263.305 275.574ZM262.577 275.574C262.577 272.638 262.48 269.7 262.239 266.773C262.017 263.845 261.643 260.93 261.12 258.041C260.584 255.157 259.892 252.291 258.849 249.553C258.345 248.181 257.689 246.869 256.895 245.642C256.498 245.035 256.02 244.485 255.473 244.009C254.928 243.55 254.264 243.199 253.553 243.178C252.842 243.158 252.162 243.479 251.619 243.937C251.075 244.413 250.607 244.971 250.233 245.59C249.481 246.843 248.877 248.18 248.432 249.572C247.499 252.351 246.92 255.241 246.474 258.14C245.601 263.951 245.331 269.84 245.355 275.713C245.332 281.581 245.694 287.469 246.678 293.257C247.182 296.145 247.827 299.02 248.824 301.769C249.301 303.145 249.934 304.461 250.712 305.692C251.097 306.296 251.569 306.84 252.114 307.305C252.657 307.748 253.314 308.068 254 308.041C254.342 308.026 254.678 307.943 254.988 307.797C255.303 307.645 255.596 307.451 255.859 307.22C256.392 306.74 256.854 306.187 257.233 305.578C257.998 304.338 258.624 303.017 259.099 301.638C260.08 298.883 260.722 296.009 261.219 293.119C261.715 290.23 262.038 287.306 262.254 284.378C262.471 281.449 262.579 278.511 262.577 275.574Z" fill="white"></path></g><g style="mix-blend-mode:soft-light" opacity="0.68"><path d="M278.2 275.574C278.188 279.395 277.669 283.198 276.657 286.882C275.626 290.564 274.021 294.06 271.9 297.241C269.769 300.398 267.048 303.196 263.822 305.225C262.206 306.243 260.46 307.039 258.632 307.593C256.803 308.146 254.902 308.428 252.991 308.43C249.169 308.43 245.389 307.255 242.153 305.238C238.917 303.22 236.191 300.419 234.052 297.262C231.925 294.08 230.313 290.582 229.275 286.897C228.758 285.059 228.37 283.186 228.116 281.294C227.592 277.502 227.592 273.657 228.116 269.866C228.372 267.973 228.761 266.101 229.28 264.263C230.323 260.581 231.939 257.087 234.069 253.909C236.209 250.758 238.921 247.967 242.168 245.95C245.415 243.933 249.171 242.76 252.991 242.775C256.811 242.79 260.575 243.955 263.799 245.969C267.024 247.982 269.745 250.784 271.878 253.935C274 257.112 275.609 260.603 276.646 264.281C277.67 267.958 278.193 271.757 278.2 275.574ZM277.366 275.574C277.365 273.701 277.244 271.829 277.004 269.971C276.769 268.113 276.408 266.274 275.924 264.466C274.965 260.838 273.444 257.382 271.417 254.225C269.364 251.094 266.763 248.294 263.605 246.26C262.026 245.247 260.318 244.453 258.526 243.899C254.923 242.771 251.061 242.771 247.458 243.899C245.669 244.457 243.963 245.253 242.386 246.268C239.236 248.304 236.631 251.107 234.597 254.238C232.581 257.395 231.07 260.848 230.118 264.472C229.636 266.278 229.277 268.115 229.043 269.971C228.559 273.683 228.559 277.442 229.043 281.154C229.279 283.008 229.64 284.845 230.126 286.651C231.084 290.271 232.601 293.72 234.623 296.872C236.659 299.998 239.264 302.795 242.41 304.827C243.985 305.838 245.688 306.632 247.475 307.188C251.068 308.317 254.921 308.317 258.515 307.188C260.303 306.636 262.009 305.847 263.589 304.842C266.742 302.815 269.353 300.021 271.398 296.894C273.427 293.741 274.952 290.29 275.916 286.666C276.887 283.049 277.375 279.319 277.366 275.574Z" fill="white"></path></g><g style="mix-blend-mode:soft-light" opacity="0.68"><path d="M223.769 262.581C226.276 262.535 228.784 262.514 231.29 262.481L238.81 262.423C241.316 262.398 243.824 262.4 246.331 262.393L253.851 262.376L261.371 262.397C263.877 262.408 266.385 262.397 268.892 262.428L276.412 262.49C278.918 262.527 281.426 262.55 283.932 262.6C283.937 262.6 283.942 262.601 283.946 262.603C283.951 262.605 283.955 262.608 283.958 262.611C283.961 262.615 283.964 262.619 283.966 262.623C283.967 262.628 283.968 262.633 283.968 262.637C283.967 262.647 283.964 262.656 283.957 262.662C283.95 262.669 283.942 262.673 283.932 262.673C281.426 262.723 278.918 262.746 276.412 262.783L268.892 262.845C266.385 262.871 263.877 262.865 261.371 262.877L253.851 262.897L246.331 262.88C243.824 262.871 241.316 262.88 238.81 262.85L231.29 262.793C228.784 262.759 226.276 262.738 223.769 262.692C223.755 262.691 223.742 262.684 223.732 262.674C223.722 262.664 223.716 262.65 223.715 262.636C223.715 262.621 223.721 262.607 223.731 262.597C223.741 262.587 223.755 262.581 223.769 262.581Z" fill="white"></path></g><g style="mix-blend-mode:soft-light" opacity="0.68"><path d="M232.494 249.973C234.274 249.927 236.054 249.906 237.833 249.872L243.173 249.815C246.732 249.777 250.291 249.772 253.851 249.768C257.412 249.764 260.97 249.779 264.529 249.82L269.868 249.882C271.648 249.919 273.428 249.942 275.209 249.992C275.213 249.992 275.218 249.993 275.223 249.995C275.227 249.997 275.231 250 275.234 250.003C275.238 250.007 275.24 250.011 275.242 250.015C275.244 250.02 275.244 250.025 275.244 250.029C275.244 250.039 275.24 250.047 275.233 250.054C275.227 250.061 275.218 250.064 275.209 250.065C273.428 250.115 271.648 250.138 269.868 250.175L264.529 250.237C260.97 250.278 257.41 250.285 253.851 250.289C250.293 250.293 246.732 250.289 243.173 250.242L237.833 250.184C236.054 250.151 234.274 250.13 232.494 250.084C232.487 250.083 232.48 250.082 232.473 250.079C232.467 250.076 232.461 250.072 232.456 250.066C232.451 250.061 232.447 250.055 232.445 250.048C232.442 250.042 232.441 250.035 232.441 250.028C232.442 250.014 232.447 250 232.457 249.99C232.467 249.98 232.48 249.974 232.494 249.973Z" fill="white"></path></g><g style="mix-blend-mode:soft-light" opacity="0.68"><path d="M221.155 275.189C223.88 275.143 226.606 275.122 229.331 275.089L237.504 275.031C240.229 275.006 242.953 275.008 245.678 275.001L253.851 274.984L262.025 275.003C264.749 275.016 267.474 275.003 270.198 275.034L278.372 275.098C281.096 275.135 283.821 275.158 286.545 275.208C286.551 275.207 286.556 275.207 286.562 275.208C286.567 275.209 286.572 275.212 286.577 275.215C286.581 275.219 286.585 275.223 286.587 275.228C286.589 275.233 286.591 275.239 286.591 275.245C286.591 275.25 286.589 275.256 286.587 275.261C286.585 275.266 286.581 275.27 286.577 275.274C286.572 275.277 286.567 275.28 286.562 275.281C286.556 275.282 286.551 275.282 286.545 275.281C283.821 275.331 281.096 275.354 278.372 275.391L270.198 275.453C267.474 275.479 264.749 275.473 262.025 275.485L253.851 275.505L245.678 275.486C242.953 275.486 240.229 275.486 237.504 275.458L229.331 275.401C226.606 275.367 223.88 275.346 221.155 275.3C221.142 275.297 221.131 275.29 221.122 275.28C221.114 275.27 221.109 275.258 221.109 275.245C221.109 275.231 221.114 275.219 221.122 275.209C221.131 275.199 221.142 275.192 221.155 275.189Z" fill="white"></path></g><g style="mix-blend-mode:soft-light" opacity="0.68"><path d="M223.769 287.798C226.276 287.751 228.784 287.73 231.29 287.697L238.81 287.639C241.316 287.614 243.824 287.616 246.331 287.609L253.851 287.592L261.371 287.611C263.877 287.624 266.385 287.611 268.892 287.642L276.412 287.706C278.918 287.743 281.426 287.764 283.932 287.814C283.942 287.815 283.951 287.82 283.958 287.827C283.964 287.834 283.968 287.844 283.968 287.854C283.967 287.863 283.964 287.872 283.957 287.878C283.95 287.885 283.942 287.889 283.932 287.889C281.426 287.939 278.918 287.962 276.412 287.997L268.892 288.061C266.385 288.087 263.877 288.081 261.371 288.093L253.851 288.111L246.331 288.095C243.824 288.095 241.316 288.095 238.81 288.066L231.29 288.009C228.784 287.975 226.276 287.954 223.769 287.908C223.755 287.907 223.742 287.901 223.732 287.89C223.722 287.88 223.716 287.866 223.715 287.852C223.715 287.837 223.721 287.824 223.731 287.813C223.741 287.803 223.755 287.798 223.769 287.798Z" fill="white"></path></g><g style="mix-blend-mode:soft-light" opacity="0.68"><path d="M276.287 300.652H233.57C233.519 300.652 233.47 300.632 233.434 300.596C233.398 300.56 233.378 300.511 233.378 300.46C233.378 300.409 233.398 300.36 233.434 300.324C233.47 300.288 233.519 300.267 233.57 300.267H276.287C276.338 300.267 276.387 300.288 276.423 300.324C276.459 300.36 276.479 300.409 276.479 300.46C276.479 300.511 276.459 300.56 276.423 300.596C276.387 300.632 276.338 300.652 276.287 300.652Z" fill="white"></path></g></g><path opacity="0.37" d="M378.262 344.506H307.808C304.869 344.506 302.487 346.89 302.487 349.831V420.352C302.487 423.293 304.869 425.677 307.808 425.677H378.262C381.2 425.677 383.582 423.293 383.582 420.352V349.831C383.582 346.89 381.2 344.506 378.262 344.506Z" fill="white"></path><path d="M343.336 395.246C355.248 395.246 364.904 385.58 364.904 373.657C364.904 361.734 355.248 352.069 343.336 352.069C331.424 352.069 321.768 361.734 321.768 373.657C321.768 385.58 331.424 395.246 343.336 395.246Z" fill="url(#paint17_linear_217_1324)"></path><path d="M364.863 372.499H321.768C321.768 372.499 320.051 384.483 339.309 417.304C339.727 418 340.318 418.577 341.024 418.977C341.73 419.378 342.528 419.589 343.339 419.591C344.151 419.592 344.95 419.384 345.657 418.986C346.365 418.588 346.958 418.013 347.378 417.318C366.616 384.497 364.863 372.499 364.863 372.499Z" fill="url(#paint18_linear_217_1324)"></path><path d="M343.325 420.292V420.413C342.399 420.406 341.491 420.159 340.69 419.696C339.888 419.233 339.22 418.569 338.751 417.77C327.5 398.586 323.376 386.456 321.9 379.666C321.483 378.144 321.233 376.582 321.154 375.006C321.023 373.399 321.122 372.723 321.135 372.652L321.191 372.307C322.061 360.711 331.703 351.686 343.321 351.686C355.091 351.686 364.82 360.838 365.477 372.527C365.514 372.923 365.526 373.32 365.513 373.717V373.797C365.514 375.91 365.214 378.012 364.623 380.04C363.096 386.822 358.948 398.832 347.887 417.692C347.424 418.49 346.757 419.151 345.956 419.607C345.155 420.064 344.247 420.3 343.325 420.292ZM322.356 373.47C322.356 373.795 322.355 374.257 322.417 374.954C322.489 376.441 322.724 377.916 323.119 379.352V379.379C324.574 386.073 328.654 398.057 339.83 417.109C340.189 417.715 340.7 418.217 341.311 418.566C341.923 418.915 342.615 419.098 343.319 419.098V419.724V419.097C344.024 419.08 344.713 418.888 345.326 418.538C345.938 418.188 346.453 417.691 346.826 417.092C357.815 398.352 361.917 386.443 363.423 379.752L363.434 379.713C363.994 377.8 364.152 375.811 364.152 373.805L364.027 373.715C364.037 373.363 364.069 373.012 364.122 372.664L364.182 372.626C363.57 361.593 354.417 352.95 343.306 352.95C332.195 352.95 323.048 361.716 322.406 372.845L322.389 373.482L322.356 373.47Z" fill="url(#paint19_linear_217_1324)"></path><path d="M346.986 385.568C353.57 383.573 357.291 376.615 355.299 370.025C353.306 363.435 346.354 359.71 339.77 361.705C333.187 363.7 329.465 370.658 331.458 377.248C333.451 383.837 340.403 387.563 346.986 385.568Z" fill="#91B3FA"></path><path d="M343.405 386.749C340.804 386.75 338.261 385.978 336.099 384.532C333.936 383.085 332.25 381.03 331.254 378.624C330.259 376.219 329.998 373.572 330.506 371.019C331.013 368.465 332.265 366.12 334.105 364.279C335.944 362.438 338.287 361.184 340.838 360.676C343.389 360.169 346.034 360.429 348.437 361.426C350.84 362.422 352.893 364.11 354.338 366.275C355.783 368.44 356.554 370.985 356.554 373.588C356.55 377.078 355.163 380.423 352.698 382.89C350.233 385.357 346.891 386.745 343.405 386.749ZM343.405 361.819C341.08 361.819 338.807 362.509 336.874 363.802C334.94 365.095 333.434 366.933 332.544 369.083C331.654 371.233 331.421 373.599 331.875 375.882C332.328 378.165 333.448 380.262 335.092 381.907C336.736 383.553 338.831 384.674 341.112 385.128C343.392 385.582 345.756 385.349 347.904 384.458C350.052 383.567 351.888 382.059 353.18 380.124C354.472 378.189 355.162 375.914 355.162 373.586C355.157 370.467 353.917 367.476 351.713 365.27C349.51 363.065 346.522 361.823 343.405 361.819Z" fill="white"></path><g opacity="0.74"><path opacity="0.74" d="M331.591 360.608C331.546 360.611 331.502 360.599 331.464 360.575C331.427 360.55 331.398 360.515 331.383 360.473C331.368 360.431 331.367 360.385 331.379 360.342C331.392 360.299 331.419 360.261 331.454 360.235C334.958 357.223 339.423 355.567 344.041 355.565C344.097 355.565 344.15 355.587 344.189 355.626C344.228 355.666 344.25 355.719 344.25 355.774C344.25 355.83 344.228 355.883 344.189 355.922C344.15 355.962 344.097 355.984 344.041 355.984C339.523 355.983 335.154 357.601 331.725 360.545C331.69 360.583 331.642 360.605 331.591 360.608Z" fill="white"></path></g><g opacity="0.74"><path opacity="0.74" d="M324.922 375.133C324.866 375.133 324.814 375.11 324.775 375.071C324.736 375.032 324.714 374.979 324.714 374.924C324.71 371.326 325.712 367.799 327.605 364.74C327.635 364.694 327.681 364.66 327.735 364.648C327.789 364.635 327.845 364.644 327.892 364.673C327.916 364.687 327.936 364.706 327.952 364.728C327.968 364.751 327.98 364.776 327.986 364.803C327.992 364.829 327.993 364.857 327.989 364.884C327.984 364.911 327.974 364.937 327.959 364.961C326.107 367.953 325.127 371.404 325.131 374.924C325.131 374.979 325.108 375.032 325.069 375.072C325.03 375.111 324.977 375.133 324.922 375.133Z" fill="white"></path></g><path opacity="0.53" d="M378.74 124.448H306.302C303.363 124.448 300.981 126.832 300.981 129.773V202.279C300.981 205.221 303.363 207.605 306.302 207.605H378.74C381.678 207.605 384.06 205.221 384.06 202.279V129.773C384.06 126.832 381.678 124.448 378.74 124.448Z" fill="white"></path><g opacity="0.64"><path opacity="0.64" d="M359.274 189.98C359.138 189.98 359.006 189.936 358.896 189.854C358.787 189.772 358.707 189.658 358.668 189.527C358.629 189.396 358.634 189.256 358.681 189.128C358.728 189 358.815 188.891 358.929 188.816C359.362 188.536 359.79 188.241 360.202 187.94C360.338 187.847 360.504 187.811 360.666 187.839C360.828 187.867 360.972 187.956 361.069 188.089C361.166 188.222 361.208 188.387 361.185 188.55C361.163 188.713 361.078 188.861 360.948 188.962C360.519 189.277 360.071 189.586 359.62 189.879C359.517 189.946 359.397 189.981 359.274 189.98Z" fill="white"></path><path opacity="0.64" d="M343.778 194.563C342.845 194.563 341.912 194.519 340.994 194.429C340.834 194.405 340.689 194.321 340.589 194.193C340.489 194.065 340.442 193.903 340.457 193.742C340.473 193.58 340.55 193.431 340.672 193.324C340.795 193.218 340.954 193.163 341.116 193.17C342.149 193.271 343.188 193.313 344.226 193.295C344.388 193.302 344.541 193.371 344.653 193.488C344.766 193.605 344.829 193.76 344.831 193.922C344.832 194.084 344.771 194.241 344.661 194.359C344.551 194.478 344.399 194.55 344.238 194.56C344.09 194.563 343.933 194.563 343.778 194.563ZM347.412 194.33C347.252 194.329 347.098 194.267 346.981 194.157C346.865 194.047 346.794 193.897 346.784 193.737C346.774 193.577 346.825 193.419 346.926 193.295C347.028 193.171 347.173 193.09 347.332 193.069C348.361 192.937 349.382 192.746 350.39 192.498C350.551 192.463 350.718 192.493 350.858 192.581C350.997 192.668 351.096 192.806 351.136 192.966C351.175 193.125 351.151 193.294 351.068 193.436C350.985 193.578 350.851 193.682 350.692 193.727C349.637 193.985 348.569 194.185 347.492 194.324C347.465 194.328 347.439 194.33 347.412 194.33ZM337.91 193.947C337.865 193.947 337.821 193.943 337.777 193.934C336.715 193.706 335.667 193.421 334.636 193.078C334.478 193.025 334.346 192.911 334.271 192.762C334.197 192.612 334.184 192.438 334.237 192.279C334.29 192.12 334.404 191.989 334.554 191.914C334.704 191.839 334.877 191.826 335.036 191.879C336.021 192.207 337.024 192.479 338.04 192.696C338.192 192.729 338.326 192.817 338.417 192.944C338.508 193.07 338.549 193.225 338.533 193.38C338.517 193.534 338.444 193.678 338.329 193.782C338.214 193.887 338.065 193.946 337.91 193.947ZM353.585 192.826C353.436 192.826 353.293 192.774 353.179 192.678C353.065 192.583 352.989 192.45 352.963 192.304C352.937 192.158 352.963 192.007 353.037 191.878C353.111 191.749 353.227 191.651 353.367 191.599C354.342 191.242 355.297 190.831 356.227 190.368C356.375 190.308 356.541 190.306 356.69 190.363C356.839 190.419 356.962 190.53 357.033 190.674C357.104 190.817 357.118 190.982 357.072 191.135C357.027 191.289 356.925 191.419 356.787 191.5C355.816 191.984 354.82 192.414 353.801 192.787C353.732 192.81 353.66 192.821 353.587 192.819L353.585 192.826ZM331.875 191.947C331.784 191.946 331.694 191.927 331.612 191.889C330.627 191.432 329.667 190.922 328.738 190.361C328.597 190.273 328.496 190.132 328.457 189.971C328.419 189.809 328.445 189.638 328.531 189.496C328.617 189.353 328.756 189.25 328.917 189.21C329.079 189.169 329.249 189.193 329.393 189.277C330.281 189.816 331.199 190.304 332.142 190.74C332.272 190.801 332.377 190.905 332.441 191.034C332.504 191.163 332.522 191.31 332.491 191.45C332.46 191.591 332.382 191.716 332.27 191.807C332.158 191.897 332.018 191.946 331.875 191.947ZM326.439 188.654C326.3 188.654 326.164 188.608 326.054 188.523C325.195 187.861 324.372 187.152 323.591 186.399C323.528 186.342 323.476 186.273 323.44 186.196C323.404 186.119 323.384 186.036 323.38 185.951C323.377 185.866 323.391 185.781 323.422 185.701C323.452 185.622 323.498 185.549 323.557 185.488C323.616 185.426 323.687 185.378 323.765 185.344C323.843 185.311 323.927 185.294 324.013 185.294C324.098 185.294 324.182 185.311 324.26 185.344C324.338 185.377 324.409 185.426 324.468 185.488C325.215 186.208 326.002 186.887 326.825 187.52C326.929 187.601 327.006 187.712 327.044 187.838C327.081 187.965 327.079 188.1 327.036 188.225C326.994 188.35 326.913 188.458 326.806 188.535C326.699 188.612 326.571 188.653 326.439 188.654ZM321.869 184.242C321.775 184.242 321.683 184.221 321.599 184.181C321.514 184.142 321.439 184.084 321.38 184.012C320.689 183.177 320.045 182.304 319.452 181.397C319.371 181.257 319.347 181.091 319.384 180.933C319.422 180.775 319.518 180.638 319.654 180.549C319.789 180.461 319.954 180.427 320.113 180.457C320.272 180.486 320.415 180.575 320.51 180.706C321.077 181.575 321.693 182.411 322.354 183.211C322.43 183.303 322.479 183.415 322.494 183.534C322.509 183.653 322.49 183.774 322.439 183.883C322.388 183.991 322.308 184.083 322.207 184.148C322.106 184.212 321.988 184.247 321.869 184.247V184.242ZM318.394 178.918C318.277 178.918 318.163 178.885 318.064 178.823C317.966 178.762 317.886 178.674 317.834 178.569C317.346 177.598 316.913 176.6 316.537 175.58C316.503 175.501 316.486 175.416 316.486 175.331C316.486 175.245 316.503 175.16 316.537 175.081C316.571 175.002 316.62 174.93 316.682 174.871C316.745 174.812 316.818 174.766 316.899 174.736C316.979 174.706 317.065 174.693 317.151 174.698C317.236 174.702 317.32 174.724 317.397 174.762C317.474 174.8 317.543 174.853 317.599 174.918C317.655 174.983 317.697 175.059 317.722 175.141C318.082 176.116 318.496 177.069 318.963 177.997C319.011 178.094 319.034 178.2 319.03 178.308C319.025 178.415 318.994 178.52 318.938 178.611C318.882 178.703 318.803 178.779 318.71 178.832C318.616 178.885 318.511 178.914 318.403 178.915L318.394 178.918ZM316.188 172.952C316.047 172.952 315.91 172.905 315.8 172.818C315.689 172.731 315.61 172.609 315.576 172.472C315.315 171.418 315.111 170.351 314.966 169.275C314.944 169.108 314.988 168.94 315.09 168.806C315.192 168.673 315.343 168.585 315.509 168.563C315.675 168.541 315.844 168.585 315.977 168.687C316.11 168.789 316.198 168.94 316.22 169.106C316.358 170.137 316.552 171.159 316.802 172.168C316.822 172.248 316.826 172.332 316.814 172.414C316.802 172.496 316.773 172.575 316.731 172.646C316.688 172.718 316.631 172.78 316.565 172.829C316.498 172.878 316.422 172.914 316.341 172.934C316.291 172.944 316.24 172.948 316.188 172.945V172.952ZM315.35 166.645C315.185 166.645 315.026 166.58 314.908 166.464C314.789 166.348 314.721 166.19 314.718 166.024C314.718 165.838 314.718 165.64 314.718 165.449C314.718 164.556 314.759 163.654 314.841 162.771C314.849 162.688 314.873 162.608 314.911 162.534C314.95 162.461 315.003 162.396 315.067 162.343C315.131 162.29 315.204 162.25 315.283 162.225C315.363 162.201 315.446 162.192 315.529 162.2C315.611 162.208 315.691 162.232 315.765 162.27C315.838 162.309 315.903 162.362 315.956 162.426C316.009 162.49 316.049 162.564 316.073 162.643C316.098 162.722 316.106 162.806 316.099 162.888C316.02 163.733 315.981 164.596 315.981 165.449C315.981 165.636 315.981 165.823 315.981 166.01C315.984 166.177 315.921 166.339 315.804 166.46C315.688 166.581 315.529 166.65 315.362 166.654L315.35 166.645Z" fill="white"></path><path opacity="0.64" d="M315.948 160.262C315.854 160.263 315.761 160.242 315.675 160.201C315.59 160.161 315.515 160.102 315.456 160.029C315.397 159.956 315.354 159.871 315.332 159.779C315.31 159.688 315.309 159.592 315.328 159.5C315.438 158.975 315.563 158.447 315.701 157.929C315.751 157.774 315.858 157.644 316.001 157.566C316.144 157.488 316.311 157.468 316.468 157.511C316.625 157.553 316.76 157.654 316.845 157.793C316.929 157.932 316.957 158.099 316.922 158.258C316.789 158.753 316.668 159.257 316.563 159.752C316.535 159.895 316.459 160.024 316.347 160.117C316.234 160.21 316.093 160.261 315.948 160.262Z" fill="white"></path></g><g opacity="0.64"><path opacity="0.64" d="M329.014 141.757C328.876 141.757 328.742 141.711 328.633 141.628C328.523 141.544 328.444 141.428 328.407 141.295C328.37 141.162 328.377 141.021 328.427 140.893C328.477 140.765 328.568 140.656 328.685 140.584C329.146 140.304 329.618 140.035 330.089 139.785C330.237 139.706 330.411 139.689 330.572 139.738C330.732 139.787 330.867 139.899 330.946 140.047C331.025 140.196 331.042 140.37 330.992 140.531C330.943 140.692 330.832 140.826 330.684 140.905C330.234 141.145 329.783 141.402 329.34 141.669C329.241 141.728 329.129 141.758 329.014 141.757Z" fill="white"></path><path opacity="0.64" d="M371.96 170.091H371.869C371.703 170.067 371.554 169.978 371.453 169.844C371.353 169.71 371.31 169.541 371.333 169.375C371.478 168.364 371.565 167.345 371.596 166.323C371.601 166.159 371.67 166.003 371.788 165.888C371.906 165.774 372.064 165.71 372.229 165.711H372.248C372.415 165.716 372.574 165.788 372.688 165.91C372.803 166.032 372.865 166.195 372.86 166.362C372.827 167.431 372.735 168.496 372.585 169.555C372.562 169.704 372.486 169.84 372.372 169.938C372.257 170.037 372.111 170.091 371.96 170.091ZM372.147 163.835C371.988 163.835 371.835 163.776 371.719 163.668C371.602 163.56 371.531 163.413 371.518 163.254C371.436 162.235 371.297 161.221 371.104 160.217C371.081 160.056 371.12 159.893 371.215 159.76C371.309 159.628 371.451 159.537 371.61 159.506C371.77 159.475 371.935 159.507 372.072 159.595C372.209 159.683 372.306 159.82 372.345 159.978C372.547 161.028 372.691 162.088 372.778 163.154C372.784 163.236 372.774 163.32 372.749 163.399C372.723 163.478 372.682 163.551 372.628 163.614C372.574 163.677 372.509 163.729 372.435 163.767C372.361 163.804 372.28 163.827 372.197 163.833L372.147 163.835ZM370.966 157.69C370.83 157.69 370.699 157.646 370.59 157.566C370.481 157.486 370.401 157.373 370.361 157.244C370.06 156.266 369.706 155.306 369.301 154.367C369.264 154.29 369.242 154.206 369.238 154.121C369.234 154.035 369.247 153.95 369.277 153.87C369.307 153.789 369.352 153.716 369.411 153.654C369.47 153.592 369.541 153.542 369.619 153.509C369.698 153.475 369.783 153.457 369.868 153.457C369.954 153.457 370.038 153.474 370.117 153.507C370.196 153.541 370.267 153.59 370.326 153.652C370.385 153.713 370.431 153.786 370.462 153.867C370.884 154.847 371.253 155.85 371.568 156.87C371.593 156.949 371.602 157.033 371.594 157.115C371.586 157.198 371.562 157.278 371.524 157.351C371.485 157.425 371.432 157.49 371.369 157.543C371.305 157.596 371.231 157.636 371.152 157.66C371.093 157.68 371.031 157.69 370.969 157.69H370.966ZM368.482 151.946C368.37 151.947 368.261 151.918 368.165 151.862C368.068 151.806 367.988 151.726 367.933 151.629C367.427 150.741 366.872 149.883 366.27 149.057C366.218 148.99 366.18 148.913 366.158 148.831C366.136 148.749 366.131 148.664 366.142 148.58C366.154 148.496 366.182 148.415 366.226 148.342C366.269 148.269 366.327 148.206 366.395 148.156C366.464 148.106 366.542 148.07 366.624 148.05C366.707 148.031 366.792 148.028 366.876 148.043C366.959 148.057 367.039 148.088 367.111 148.134C367.182 148.18 367.243 148.24 367.291 148.31C367.92 149.173 368.501 150.071 369.03 150.999C369.085 151.095 369.114 151.204 369.114 151.315C369.113 151.426 369.084 151.535 369.028 151.63C368.973 151.726 368.893 151.806 368.797 151.861C368.701 151.916 368.592 151.945 368.482 151.944V151.946ZM364.8 146.892C364.712 146.892 364.626 146.874 364.546 146.838C364.466 146.803 364.394 146.751 364.335 146.686C363.645 145.933 362.915 145.217 362.148 144.542C362.022 144.432 361.945 144.276 361.934 144.108C361.923 143.941 361.979 143.776 362.089 143.65C362.2 143.524 362.356 143.447 362.523 143.436C362.69 143.425 362.855 143.481 362.981 143.591C363.783 144.296 364.546 145.045 365.266 145.833C365.349 145.923 365.404 146.036 365.424 146.158C365.444 146.279 365.428 146.403 365.379 146.516C365.33 146.628 365.248 146.724 365.146 146.791C365.043 146.858 364.923 146.894 364.8 146.894V146.892ZM360.101 142.766C359.971 142.767 359.845 142.727 359.739 142.652C358.902 142.067 358.033 141.528 357.138 141.036C357 140.951 356.9 140.816 356.858 140.659C356.817 140.502 356.837 140.336 356.915 140.193C356.992 140.051 357.122 139.944 357.276 139.894C357.431 139.845 357.598 139.856 357.744 139.927C358.68 140.438 359.588 140.999 360.463 141.608C360.573 141.685 360.655 141.795 360.698 141.923C360.741 142.05 360.742 142.187 360.702 142.315C360.662 142.443 360.582 142.555 360.474 142.635C360.366 142.715 360.235 142.758 360.101 142.758V142.766ZM354.617 139.762C354.534 139.762 354.452 139.747 354.376 139.716C353.432 139.326 352.467 138.988 351.485 138.703C351.406 138.68 351.331 138.642 351.267 138.59C351.202 138.538 351.148 138.474 351.108 138.401C351.068 138.329 351.043 138.249 351.033 138.166C351.024 138.084 351.031 138 351.054 137.921C351.077 137.841 351.116 137.767 351.168 137.702C351.219 137.637 351.283 137.583 351.356 137.543C351.429 137.503 351.508 137.477 351.591 137.468C351.673 137.459 351.757 137.466 351.836 137.489C352.862 137.786 353.87 138.139 354.857 138.546C354.993 138.602 355.105 138.703 355.175 138.832C355.244 138.961 355.267 139.11 355.238 139.254C355.21 139.398 355.132 139.527 355.019 139.62C354.905 139.713 354.763 139.763 354.617 139.762ZM333.224 139.656C333.076 139.657 332.933 139.606 332.819 139.513C332.705 139.419 332.627 139.288 332.6 139.143C332.572 138.998 332.596 138.848 332.667 138.719C332.739 138.59 332.853 138.49 332.99 138.436C333.928 138.061 334.885 137.736 335.857 137.461L336.021 137.414C336.101 137.392 336.184 137.386 336.267 137.396C336.349 137.406 336.429 137.432 336.501 137.473C336.573 137.513 336.637 137.568 336.688 137.633C336.739 137.699 336.777 137.773 336.799 137.853C336.821 137.933 336.828 138.017 336.818 138.099C336.808 138.182 336.782 138.261 336.741 138.334C336.7 138.406 336.646 138.47 336.581 138.521C336.515 138.572 336.441 138.61 336.361 138.632L336.202 138.677C335.271 138.94 334.355 139.252 333.457 139.611C333.384 139.64 333.306 139.655 333.227 139.656H333.224ZM348.608 138.025C348.572 138.029 348.537 138.029 348.501 138.025C347.494 137.852 346.478 137.734 345.458 137.672C345.296 137.655 345.148 137.576 345.043 137.451C344.938 137.327 344.885 137.167 344.895 137.004C344.904 136.842 344.976 136.689 345.095 136.579C345.215 136.468 345.372 136.407 345.534 136.41C346.601 136.475 347.663 136.6 348.716 136.783C348.874 136.807 349.017 136.891 349.116 137.017C349.215 137.143 349.262 137.302 349.248 137.461C349.235 137.621 349.161 137.769 349.042 137.876C348.923 137.984 348.768 138.041 348.608 138.038V138.025ZM339.249 137.982C339.09 137.983 338.936 137.924 338.819 137.816C338.702 137.709 338.629 137.56 338.617 137.402C338.604 137.243 338.652 137.085 338.75 136.96C338.849 136.835 338.991 136.751 339.149 136.727C340.203 136.555 341.266 136.442 342.332 136.387C342.415 136.382 342.498 136.393 342.577 136.421C342.655 136.448 342.727 136.491 342.789 136.546C342.851 136.602 342.901 136.67 342.936 136.745C342.971 136.82 342.991 136.902 342.995 136.985C343.003 137.152 342.944 137.316 342.832 137.441C342.72 137.566 342.563 137.641 342.396 137.65C341.376 137.702 340.36 137.811 339.352 137.975C339.319 137.98 339.286 137.982 339.253 137.982H339.249Z" fill="white"></path><path opacity="0.64" d="M370.898 174.71C370.799 174.71 370.701 174.687 370.612 174.642C370.524 174.596 370.447 174.531 370.388 174.451C370.33 174.371 370.291 174.278 370.275 174.18C370.259 174.081 370.267 173.981 370.297 173.886C370.45 173.402 370.594 172.904 370.724 172.392C370.745 172.312 370.782 172.236 370.832 172.17C370.882 172.104 370.944 172.048 371.016 172.006C371.087 171.964 371.166 171.936 371.248 171.925C371.33 171.913 371.414 171.918 371.494 171.939C371.574 171.96 371.65 171.996 371.716 172.046C371.782 172.096 371.838 172.159 371.88 172.23C371.922 172.302 371.949 172.381 371.961 172.463C371.972 172.545 371.968 172.629 371.947 172.709C371.812 173.234 371.661 173.755 371.501 174.262C371.461 174.391 371.381 174.504 371.273 174.585C371.165 174.666 371.033 174.709 370.898 174.71Z" fill="white"></path></g><path d="M366.772 176.118C366.815 176.048 366.835 175.965 366.828 175.883C366.822 175.8 366.79 175.722 366.737 175.659L363.641 171.966C364.339 169.794 364.679 167.523 364.647 165.242L368.683 162.616C368.752 162.571 368.806 162.505 368.836 162.429C368.866 162.352 368.871 162.268 368.851 162.188L367.451 156.584C367.432 156.504 367.387 156.433 367.325 156.379C367.262 156.325 367.185 156.293 367.103 156.285L362.309 155.863C361.265 153.833 359.899 151.987 358.263 150.396L359.261 145.68C359.278 145.599 359.269 145.515 359.235 145.44C359.202 145.364 359.146 145.301 359.075 145.259L354.124 142.282C354.053 142.239 353.971 142.22 353.889 142.226C353.806 142.232 353.728 142.264 353.665 142.318L349.975 145.414C347.805 144.717 345.536 144.378 343.258 144.41L340.634 140.369C340.589 140.3 340.524 140.247 340.447 140.217C340.371 140.186 340.286 140.181 340.206 140.201L334.608 141.602C334.528 141.622 334.457 141.666 334.404 141.729C334.35 141.792 334.318 141.869 334.311 141.951L333.89 146.75C331.862 147.794 330.017 149.162 328.428 150.799L323.716 149.8C323.635 149.783 323.551 149.792 323.476 149.826C323.4 149.859 323.338 149.916 323.296 149.987L320.321 154.944C320.279 155.015 320.259 155.097 320.265 155.18C320.272 155.262 320.304 155.34 320.357 155.404L323.451 159.097C322.754 161.269 322.415 163.54 322.445 165.821L318.41 168.447C318.341 168.492 318.288 168.557 318.258 168.634C318.228 168.711 318.222 168.795 318.243 168.875L319.64 174.478C319.66 174.558 319.705 174.63 319.768 174.684C319.831 174.737 319.909 174.77 319.991 174.777L324.785 175.199C325.828 177.229 327.195 179.076 328.831 180.667L327.832 185.381C327.815 185.462 327.824 185.546 327.858 185.622C327.891 185.698 327.948 185.761 328.019 185.803L332.972 188.781C333.042 188.823 333.125 188.843 333.207 188.836C333.289 188.83 333.367 188.798 333.431 188.745L337.12 185.646C339.29 186.345 341.559 186.685 343.838 186.653L346.452 190.689C346.497 190.759 346.562 190.812 346.639 190.842C346.716 190.872 346.8 190.878 346.88 190.858L352.478 189.457C352.558 189.437 352.63 189.392 352.683 189.33C352.737 189.267 352.769 189.189 352.776 189.107L353.198 184.309C355.226 183.265 357.071 181.897 358.66 180.259L363.37 181.259C363.451 181.276 363.536 181.267 363.611 181.233C363.687 181.2 363.75 181.143 363.792 181.072L366.772 176.118Z" fill="url(#paint20_linear_217_1324)"></path><path opacity="0.56" d="M343.549 171.294C342.529 171.295 341.528 171.026 340.646 170.513C339.764 170.001 339.034 169.263 338.53 168.376C338.027 167.489 337.767 166.483 337.778 165.463C337.789 164.443 338.071 163.443 338.594 162.567C339.117 161.691 339.863 160.97 340.755 160.476C341.648 159.983 342.655 159.736 343.674 159.759C344.694 159.783 345.688 160.077 346.557 160.611C347.426 161.146 348.137 161.901 348.619 162.801C349.088 163.679 349.322 164.664 349.299 165.659C349.275 166.655 348.994 167.628 348.484 168.483C347.974 169.338 347.251 170.046 346.386 170.538C345.521 171.031 344.544 171.291 343.549 171.294ZM343.534 161.02C342.55 161.022 341.593 161.346 340.811 161.943C340.028 162.541 339.463 163.378 339.202 164.328C338.941 165.278 338.998 166.287 339.364 167.201C339.731 168.115 340.386 168.884 341.231 169.389C342.076 169.895 343.063 170.109 344.041 169.999C345.019 169.89 345.934 169.462 346.646 168.782C347.358 168.102 347.827 167.207 347.982 166.234C348.138 165.261 347.97 164.265 347.505 163.396C347.12 162.678 346.547 162.078 345.847 161.66C345.148 161.242 344.349 161.021 343.534 161.022V161.02Z" fill="white"></path><path opacity="0.56" d="M343.405 180.061C340.675 180.057 338.001 179.285 335.688 177.834C333.375 176.383 331.515 174.311 330.321 171.853C329.127 169.396 328.647 166.652 328.935 163.935C329.223 161.218 330.267 158.636 331.95 156.484C333.632 154.332 335.885 152.696 338.45 151.763C341.016 150.829 343.792 150.636 346.463 151.205C349.133 151.774 351.59 153.083 353.553 154.981C355.517 156.879 356.908 159.292 357.569 161.943C357.606 162.087 357.638 162.231 357.671 162.377C357.843 163.166 357.949 163.968 357.989 164.775C357.989 164.857 357.989 164.937 357.989 165.018V165.038C357.989 165.202 357.925 165.36 357.811 165.478C357.696 165.596 357.541 165.665 357.377 165.67C357.21 165.673 357.048 165.61 356.926 165.496C356.805 165.381 356.733 165.224 356.725 165.057C356.694 164.112 356.563 163.173 356.333 162.255C355.568 159.199 353.746 156.513 351.191 154.673C348.636 152.833 345.513 151.957 342.375 152.2C341.643 152.259 340.917 152.379 340.205 152.557C337.328 153.276 334.774 154.936 332.946 157.272C331.118 159.609 330.122 162.489 330.115 165.457C330.115 166.552 330.25 167.643 330.516 168.705C331.086 170.99 332.251 173.084 333.893 174.772C335.534 176.46 337.594 177.682 339.861 178.313C342.128 178.945 344.523 178.963 346.799 178.367C349.076 177.77 351.154 176.58 352.821 174.917C352.942 174.807 353.1 174.747 353.263 174.75C353.426 174.754 353.582 174.82 353.697 174.936C353.812 175.051 353.879 175.207 353.882 175.37C353.886 175.533 353.826 175.692 353.715 175.812C350.974 178.539 347.266 180.07 343.401 180.071L343.405 180.061Z" fill="white"></path><path opacity="0.53" d="M181.348 211.143H263.329C266.267 211.143 268.649 208.758 268.649 205.817V123.759C268.649 120.818 266.267 118.433 263.329 118.433L181.348 118.433C178.41 118.433 176.028 120.818 176.028 123.759V205.817C176.028 208.758 178.41 211.143 181.348 211.143Z" fill="white"></path><path d="M194.925 189.089H251.697C252.798 189.089 253.854 188.651 254.632 187.872C255.41 187.093 255.848 186.036 255.848 184.935V147.934C255.848 146.873 255.442 145.851 254.713 145.08C253.984 144.309 252.988 143.846 251.929 143.788L192.96 140.498C192.378 140.466 191.795 140.556 191.25 140.764C190.704 140.973 190.209 141.293 189.796 141.706C189.383 142.119 189.062 142.614 188.853 143.159C188.644 143.704 188.553 144.288 188.584 144.871L190.775 185.163C190.833 186.224 191.296 187.223 192.068 187.954C192.84 188.684 193.863 189.09 194.925 189.089Z" fill="url(#paint21_linear_217_1324)"></path><path d="M221.984 166.76L190.951 140.891C191.578 140.59 192.27 140.454 192.964 140.495L251.933 143.784C252.909 143.837 253.834 144.234 254.545 144.905L231.314 166.529C228.799 168.877 224.651 168.979 221.984 166.76Z" fill="url(#paint22_linear_217_1324)"></path><path d="M226.304 165.477C227.894 165.476 229.428 164.892 230.616 163.835L239.368 156.102C239.492 155.993 239.567 155.84 239.578 155.675C239.588 155.51 239.533 155.348 239.424 155.225C239.315 155.101 239.162 155.025 238.997 155.015C238.833 155.004 238.671 155.059 238.547 155.168L229.795 162.901C228.901 163.699 227.761 164.166 226.564 164.226C225.368 164.286 224.187 163.936 223.217 163.232L218.683 159.969C218.616 159.921 218.542 159.887 218.462 159.869C218.383 159.85 218.301 159.847 218.22 159.86C218.14 159.874 218.063 159.902 217.994 159.945C217.924 159.988 217.864 160.045 217.817 160.111C217.769 160.177 217.735 160.252 217.717 160.331C217.698 160.411 217.695 160.493 217.708 160.574C217.722 160.654 217.75 160.731 217.793 160.8C217.836 160.87 217.892 160.93 217.959 160.978L222.495 164.241C223.604 165.042 224.936 165.474 226.304 165.477Z" fill="white"></path><path d="M242.214 153.381C242.366 153.38 242.512 153.325 242.625 153.224L243.802 152.184C243.926 152.075 244.001 151.921 244.012 151.756C244.022 151.592 243.967 151.43 243.858 151.306C243.749 151.182 243.596 151.106 243.431 151.096C243.267 151.085 243.105 151.141 242.981 151.25L241.804 152.29C241.709 152.373 241.641 152.484 241.61 152.606C241.58 152.729 241.587 152.858 241.632 152.976C241.676 153.095 241.756 153.196 241.86 153.268C241.964 153.34 242.088 153.378 242.214 153.377V153.381Z" fill="white"></path><path d="M167.013 495.518C167.013 495.518 182.368 502.967 182.618 504.156C182.869 505.345 172.743 503.756 168.609 503.93C164.475 504.103 161.076 502.796 161.45 500.936C161.825 499.076 163.271 494.365 163.271 494.365L167.013 495.518Z" fill="url(#paint23_linear_217_1324)"></path><path d="M167.574 489.471L166.641 496.852C166.641 496.852 164.211 497.776 162.577 496.683L161.882 488.59L167.574 489.471Z" fill="url(#paint24_linear_217_1324)"></path><path d="M95.2639 489.648L93.4752 492.708C93.2282 493.13 93.0653 493.603 92.9963 494.095C92.9274 494.588 92.9541 495.09 93.0746 495.571C93.6975 498.116 94.9454 503.076 95.4902 504.37C96.2293 506.132 106.166 507.177 106.166 507.177C106.166 507.177 107.052 505.847 104.989 504.24C102.926 502.632 101.602 502.379 100.872 500.006C100.143 497.632 99.6586 490.923 99.6586 490.923L95.2639 489.648Z" fill="url(#paint25_linear_217_1324)"></path><path d="M102.699 481.871C102.046 482.425 98.8552 492.776 98.8552 492.776C98.8552 492.776 97.8216 494.188 95.8506 492.105C93.8796 490.022 94.9632 491.173 94.9632 491.173L95.3318 481.003L102.699 481.871Z" fill="url(#paint26_linear_217_1324)"></path><path d="M176.021 341.207C176.822 363.231 176.864 387.137 175.678 412.689C174.342 441.461 171.656 468.052 168.267 492.159C167.009 492.201 165.687 492.208 164.307 492.159C163.376 492.131 162.472 492.082 161.599 492.017C159.366 485.662 157.466 479.178 155.91 472.596C154.149 465.111 152.824 457.517 151.942 449.858C148.986 424.924 152.451 422.749 150.051 404.271C147.926 387.907 144.903 387.267 141.356 364.033C137.506 338.821 140.373 335.039 141.757 333.67C147.698 327.858 161.633 331.827 176.021 341.207Z" fill="url(#paint27_linear_217_1324)"></path><path style="mix-blend-mode:multiply" opacity="0.3" d="M141.768 333.674C147.427 328.128 160.366 331.485 174.033 339.952C158.309 358.087 156.607 369.851 158.482 377.485C160.611 386.11 167.095 388.604 167.063 398.029C167.033 409.62 157.232 412.691 157.448 424.958C157.586 433.068 161.893 432.985 162.91 443.002C164.112 454.857 158.488 458.941 160.306 467.712C161.089 471.484 163.327 476.415 169.701 481.493C169.24 485.096 168.769 488.66 168.278 492.158C167.02 492.201 165.699 492.208 164.318 492.158C163.387 492.131 162.484 492.081 161.61 492.017C159.377 485.662 157.478 479.178 155.922 472.596C154.157 465.111 152.829 457.517 151.944 449.858C148.987 424.924 152.452 422.749 150.053 404.27C147.927 387.906 144.905 387.267 141.357 364.031C137.508 338.823 140.374 335.034 141.768 333.674Z" fill="url(#paint28_linear_217_1324)"></path><path d="M166.283 340.837C137.881 385.181 116.44 434.169 102.802 485.876C101.388 486.579 99.8166 486.839 98.2695 486.627C96.2828 486.323 94.4627 485.273 93.1357 483.666C91.3889 472.065 90.994 460.279 91.9599 448.575C92.4247 442.988 93.2459 433.68 96.583 422.191C100.321 409.323 102.891 408.6 107.766 394.984C112.828 380.853 111.602 377.327 116.449 359.641C119.363 349.046 122.978 338.685 127.266 328.637L166.283 340.837Z" fill="url(#paint29_linear_217_1324)"></path><path d="M230.317 190.312C230.317 190.312 232.945 186.957 234.62 184.455C236.294 181.954 244.012 175 244.012 175C244.012 175 244.567 176.144 242.901 177.917C241.234 179.689 237.739 182.715 238.494 184.045C239.249 185.375 241.452 186.585 239.8 189.027C238.147 191.469 235.393 189.711 233.929 191.668C232.465 193.624 230.958 195.758 230.958 195.758L230.317 190.312Z" fill="url(#paint30_linear_217_1324)"></path><path d="M229.949 186.786L235.207 193.829C232.967 204.18 228.196 219.779 217.081 234.93C205.307 250.989 180.193 275.042 164.559 267.156C155.031 262.351 142.167 245.859 146.788 237.907C151.233 230.263 170.464 233.876 183.672 230.692C196.618 227.571 213.421 217.512 229.949 186.786Z" fill="url(#paint31_linear_217_1324)"></path><path d="M111.134 247.88C111.134 247.88 100.89 285.1 107.236 299.411C113.581 313.722 133.82 298.004 133.82 298.004L111.134 247.88Z" fill="url(#paint32_linear_217_1324)"></path><path d="M141.094 234.073C154.252 233.816 164.387 234.287 169.99 240.52C175.907 247.114 169.645 254.256 170.615 271.167C172.097 297.059 187.396 303.733 188.021 329.98C188.168 336.862 187.32 343.727 185.508 350.333C182.03 354.757 176.358 360.98 168.081 366.101C156.023 373.555 149.148 372.045 131.954 376.64C103.829 384.158 101.143 393.827 87.3323 391.026C73.3731 388.195 61.3367 375.323 62.9632 368.446C63.9367 364.328 69.5613 365.633 76.1833 359.466C84.7303 351.524 81.6556 343.681 88.2016 335.09C97.6159 322.744 110.205 330.717 118.227 320.015C126.342 309.187 123.656 287.418 117.246 275.437C113.059 267.611 111.385 258.515 107.853 250.33C107.422 249.342 107.269 248.242 107.413 247.163C108.12 241.901 116.414 239.233 122.696 237.278C132.281 234.3 140.012 234.092 141.094 234.073Z" fill="url(#paint33_linear_217_1324)"></path><path d="M153.903 233.791L151.327 232.878C151.327 232.878 150.572 236.609 142.226 236.885C139.469 236.822 136.809 235.786 134.662 233.938L132.859 235.277C132.859 235.277 136.641 240.55 142.825 240.563C150.811 240.578 153.903 233.791 153.903 233.791Z" fill="url(#paint34_linear_217_1324)"></path><path d="M151.791 221.742C152.498 217.66 150.353 214.151 149.88 213.403C147.907 210.242 147.437 209.83 146.581 209.34L145.4 208.711L145.261 208.673C144.518 208.459 142.057 208.628 141.576 208.79C140.021 209.306 138.924 216.364 140.24 226.063C140.178 226.824 140.114 227.586 140.051 228.349C136.512 227.825 135.489 228.186 135.308 228.691C134.908 229.788 137.377 236.188 140.749 237.458C144.975 239.038 150.862 234.918 151.216 233.427C151.359 232.824 151.335 233.342 148.456 231.563C148.192 230.671 147.369 228.257 147.102 227.365C147.713 226.921 151.273 224.748 151.791 221.742Z" fill="url(#paint35_linear_217_1324)"></path><path d="M146.97 218.455C146.189 217.506 145.053 218.581 145.167 219.896C145.281 221.211 146.585 222.462 147.721 222.092C148.857 221.722 148.019 219.734 146.97 218.455Z" fill="url(#paint36_linear_217_1324)"></path><path d="M28.6008 185.385C45.7669 175.019 67.2488 179.246 80.1004 196.72C86.0714 204.845 88.0284 212.682 96.8779 216.323C103.606 219.103 115.338 220.089 123.468 214.136C124.492 213.386 128.648 210.193 134.585 206.404C137.201 204.734 139.765 203.197 142.866 203.725C143.655 203.858 146.281 204.281 147.411 206.569C148.328 208.421 147.926 210.956 147.01 212.569C146.459 213.531 146.121 213.537 145.959 214.234C145.502 216.199 148.526 218.162 148.054 219.067C147.713 219.708 146.085 218.874 145.528 219.64C144.927 220.48 146.547 221.943 146.632 224.611C147.815 226.206 147.96 229.217 147.206 232.918C146.101 238.36 144.312 242.476 142.399 245.384C133.205 259.379 124.267 266.359 114.601 269.885C101.781 274.557 97.524 261.117 71.6006 250.885C36.1006 236.875 48.6004 248.885 27.1005 241.385C5.60066 233.885 10.7797 196.149 28.6008 185.385Z" fill="#26264F"></path><g style="mix-blend-mode:multiply" opacity="0.4"><path style="mix-blend-mode:multiply" opacity="0.4" d="M97.2038 368.803C110.436 359.417 122.416 370.153 131.77 361.884C139.474 355.074 133.156 346.196 141.493 334.209C150.631 321.067 163.314 324.429 166.331 314.606C169.456 304.455 156.917 297.566 156.61 283.473C156.45 276.28 159.474 266.91 171.561 255.676C170.908 259.775 170.241 264.772 170.607 271.167C172.09 297.059 187.389 303.733 188.014 329.98C188.16 336.862 187.312 343.727 185.5 350.333C182.023 354.757 176.35 360.98 168.074 366.101C156.015 373.553 149.141 372.045 131.947 376.64C103.822 384.158 101.136 393.827 87.3248 391.026C83.3448 390.183 79.5238 388.639 76.0176 386.459C80.0397 385.79 83.0282 384.321 85.3257 382.64C91.3649 378.175 90.3033 373.698 97.2038 368.803Z" fill="url(#paint37_linear_217_1324)"></path></g><defs><linearGradient id="paint0_linear_217_1324" x1="436.014" y1="19.5471" x2="436.014" y2="141.438" gradientUnits="userSpaceOnUse"><stop stop-color="#FCB148"></stop><stop offset="1" stop-color="#F47540"></stop></linearGradient><linearGradient id="paint1_linear_217_1324" x1="400.995" y1="185.364" x2="447.495" y2="243.864" gradientUnits="userSpaceOnUse"><stop stop-color="#F57E41"></stop><stop offset="1" stop-color="#FBAE47"></stop></linearGradient><linearGradient id="paint2_linear_217_1324" x1="414.789" y1="212.145" x2="431.434" y2="212.145" gradientUnits="userSpaceOnUse"><stop stop-color="#DAE3FE"></stop><stop offset="1" stop-color="#E9EFFD"></stop></linearGradient><linearGradient id="paint3_linear_217_1324" x1="401.59" y1="212.145" x2="444.635" y2="212.145" gradientUnits="userSpaceOnUse"><stop stop-color="#DAE3FE"></stop><stop offset="1" stop-color="#E9EFFD"></stop></linearGradient><linearGradient id="paint4_linear_217_1324" x1="103.231" y1="13.879" x2="103.231" y2="446.978" gradientUnits="userSpaceOnUse"><stop stop-color="#FF8F86"></stop><stop offset="1" stop-color="#FC7AA8"></stop></linearGradient><linearGradient id="paint5_linear_217_1324" x1="431.213" y1="15.0773" x2="-29.1182" y2="619.139" gradientUnits="userSpaceOnUse"><stop stop-color="#09005D"></stop><stop offset="1" stop-color="#1A0F91"></stop></linearGradient><linearGradient id="paint6_linear_217_1324" x1="260.841" y1="329.283" x2="242.696" y2="420.343" gradientUnits="userSpaceOnUse"><stop stop-color="#4F52FF"></stop><stop offset="1" stop-color="#4042E2"></stop></linearGradient><linearGradient id="paint7_linear_217_1324" x1="265.999" y1="330.31" x2="247.854" y2="421.371" gradientUnits="userSpaceOnUse"><stop stop-color="#4F52FF"></stop><stop offset="1" stop-color="#4042E2"></stop></linearGradient><linearGradient id="paint8_linear_217_1324" x1="329.482" y1="56.037" x2="398.832" y2="148.956" gradientUnits="userSpaceOnUse"><stop stop-color="#4F52FF"></stop><stop offset="1" stop-color="#4042E2"></stop></linearGradient><linearGradient id="paint9_linear_217_1324" x1="327.792" y1="233.236" x2="317.148" y2="270.204" gradientUnits="userSpaceOnUse"><stop stop-color="#4F52FF"></stop><stop offset="1" stop-color="#4042E2"></stop></linearGradient><linearGradient id="paint10_linear_217_1324" x1="334.521" y1="271.284" x2="345.119" y2="252.319" gradientUnits="userSpaceOnUse"><stop stop-color="#4F52FF"></stop><stop offset="1" stop-color="#4042E2"></stop></linearGradient><linearGradient id="paint11_linear_217_1324" x1="312.575" y1="275.442" x2="372.466" y2="275.442" gradientUnits="userSpaceOnUse"><stop stop-color="#4F52FF"></stop><stop offset="1" stop-color="#4042E2"></stop></linearGradient><linearGradient id="paint12_linear_217_1324" x1="364.333" y1="233.759" x2="346.932" y2="266.946" gradientUnits="userSpaceOnUse"><stop stop-color="#09005D"></stop><stop offset="1" stop-color="#1A0F91"></stop></linearGradient><linearGradient id="paint13_linear_217_1324" x1="195.226" y1="274.257" x2="150.5" y2="434.027" gradientUnits="userSpaceOnUse"><stop stop-color="#4F52FF"></stop><stop offset="1" stop-color="#4042E2"></stop></linearGradient><linearGradient id="paint14_linear_217_1324" x1="216.626" y1="280.247" x2="171.898" y2="440.017" gradientUnits="userSpaceOnUse"><stop stop-color="#4F52FF"></stop><stop offset="1" stop-color="#4042E2"></stop></linearGradient><linearGradient id="paint15_linear_217_1324" x1="180.448" y1="270.12" x2="135.722" y2="429.89" gradientUnits="userSpaceOnUse"><stop stop-color="#4F52FF"></stop><stop offset="1" stop-color="#4042E2"></stop></linearGradient><linearGradient id="paint16_linear_217_1324" x1="264.461" y1="246.018" x2="237.962" y2="319.615" gradientUnits="userSpaceOnUse"><stop stop-color="#4F52FF"></stop><stop offset="1" stop-color="#4042E2"></stop></linearGradient><linearGradient id="paint17_linear_217_1324" x1="354.672" y1="356.346" x2="387.57" y2="306.202" gradientUnits="userSpaceOnUse"><stop stop-color="#4F52FF"></stop><stop offset="1" stop-color="#4042E2"></stop></linearGradient><linearGradient id="paint18_linear_217_1324" x1="358.276" y1="358.711" x2="391.174" y2="308.567" gradientUnits="userSpaceOnUse"><stop stop-color="#4F52FF"></stop><stop offset="1" stop-color="#4042E2"></stop></linearGradient><linearGradient id="paint19_linear_217_1324" x1="342.214" y1="379.534" x2="358.249" y2="299.012" gradientUnits="userSpaceOnUse"><stop stop-color="#4F52FF"></stop><stop offset="1" stop-color="#4042E2"></stop></linearGradient><linearGradient id="paint20_linear_217_1324" x1="359.681" y1="105.653" x2="327.401" y2="225.166" gradientUnits="userSpaceOnUse"><stop stop-color="#4F52FF"></stop><stop offset="1" stop-color="#4042E2"></stop></linearGradient><linearGradient id="paint21_linear_217_1324" x1="226.766" y1="77.6599" x2="222.335" y2="162.404" gradientUnits="userSpaceOnUse"><stop stop-color="#4F52FF"></stop><stop offset="0.85" stop-color="#4245E7"></stop><stop offset="1" stop-color="#4042E2"></stop></linearGradient><linearGradient id="paint22_linear_217_1324" x1="219.414" y1="163.854" x2="233.34" y2="76.5843" gradientUnits="userSpaceOnUse"><stop stop-color="#4F52FF"></stop><stop offset="1" stop-color="#4042E2"></stop></linearGradient><linearGradient id="paint23_linear_217_1324" x1="174.452" y1="469.671" x2="170.107" y2="521.451" gradientUnits="userSpaceOnUse"><stop stop-color="#26264F"></stop><stop offset="1" stop-color="#444B8C"></stop></linearGradient><linearGradient id="paint24_linear_217_1324" x1="164.606" y1="498.524" x2="165.396" y2="444.851" gradientUnits="userSpaceOnUse"><stop stop-color="#AB316D"></stop><stop offset="1" stop-color="#792D3D"></stop></linearGradient><linearGradient id="paint25_linear_217_1324" x1="102.369" y1="463.626" x2="98.0241" y2="515.404" gradientUnits="userSpaceOnUse"><stop stop-color="#26264F"></stop><stop offset="1" stop-color="#444B8C"></stop></linearGradient><linearGradient id="paint26_linear_217_1324" x1="98.5427" y1="497.551" x2="99.3324" y2="443.878" gradientUnits="userSpaceOnUse"><stop stop-color="#AB316D"></stop><stop offset="1" stop-color="#792D3D"></stop></linearGradient><linearGradient id="paint27_linear_217_1324" x1="176.602" y1="411.573" x2="139.427" y2="411.573" gradientUnits="userSpaceOnUse"><stop stop-color="#311944"></stop><stop offset="1" stop-color="#6B3976"></stop></linearGradient><linearGradient id="paint28_linear_217_1324" x1="174.033" y1="411.575" x2="139.429" y2="411.575" gradientUnits="userSpaceOnUse"><stop stop-color="#26264F"></stop><stop offset="1" stop-color="#444B8C"></stop></linearGradient><linearGradient id="paint29_linear_217_1324" x1="166.283" y1="407.662" x2="91.4432" y2="407.662" gradientUnits="userSpaceOnUse"><stop stop-color="#311944"></stop><stop offset="1" stop-color="#6B3976"></stop></linearGradient><linearGradient id="paint30_linear_217_1324" x1="241.286" y1="171.303" x2="216.76" y2="235.522" gradientUnits="userSpaceOnUse"><stop stop-color="#AB316D"></stop><stop offset="1" stop-color="#792D3D"></stop></linearGradient><linearGradient id="paint31_linear_217_1324" x1="189.008" y1="226.265" x2="146.072" y2="379.515" gradientUnits="userSpaceOnUse"><stop stop-color="#AA80F9"></stop><stop offset="1" stop-color="#6165D7"></stop></linearGradient><linearGradient id="paint32_linear_217_1324" x1="135.007" y1="277.302" x2="106.1" y2="276.76" gradientUnits="userSpaceOnUse"><stop stop-color="#AA80F9"></stop><stop offset="1" stop-color="#6165D7"></stop></linearGradient><linearGradient id="paint33_linear_217_1324" x1="159.921" y1="218.117" x2="116.986" y2="371.366" gradientUnits="userSpaceOnUse"><stop stop-color="#AA80F9"></stop><stop offset="1" stop-color="#6165D7"></stop></linearGradient><linearGradient id="paint34_linear_217_1324" x1="151.703" y1="221.921" x2="138.823" y2="240.275" gradientUnits="userSpaceOnUse"><stop stop-color="#FFC444"></stop><stop offset="1" stop-color="#F36F56"></stop></linearGradient><linearGradient id="paint35_linear_217_1324" x1="140.033" y1="214.897" x2="146.812" y2="241.038" gradientUnits="userSpaceOnUse"><stop stop-color="#AB316D"></stop><stop offset="1" stop-color="#792D3D"></stop></linearGradient><linearGradient id="paint36_linear_217_1324" x1="146.76" y1="212.659" x2="146.882" y2="237.222" gradientUnits="userSpaceOnUse"><stop stop-color="#AB316D"></stop><stop offset="1" stop-color="#792D3D"></stop></linearGradient><linearGradient id="paint37_linear_217_1324" x1="168.114" y1="220.411" x2="125.179" y2="373.661" gradientUnits="userSpaceOnUse"><stop stop-color="#AA80F9"></stop><stop offset="1" stop-color="#6165D7"></stop></linearGradient></defs></svg>