<svg xmlns="http://www.w3.org/2000/svg" width="60" height="60" viewBox="0 0 60 60" fill="none"><path d="M31.2683 59.6501C33.3908 58.3 35.5195 56.9562 37.642 55.6061C38.6028 54.997 39.5762 54.3941 40.5118 53.7411C42.7346 52.19 44.8195 50.4255 46.6719 48.4412C50.3392 44.504 53.1272 39.8383 54.8918 34.7586C56.3297 30.6079 56.9452 26.231 56.9452 21.8477V13.7095V13.4897C56.9452 12.3657 56.1602 11.3861 55.099 11.0658C54.3329 10.8335 53.5731 10.5949 52.8383 10.2872C53.0393 10.3688 53.2402 10.4567 53.4412 10.5384C52.1287 9.97949 50.898 9.26358 49.7677 8.39711C49.9372 8.52897 50.1068 8.66085 50.2763 8.79272C49.1586 7.92614 48.1539 6.92773 47.2873 5.8099C47.4192 5.97945 47.5511 6.14899 47.6829 6.31854C46.8164 5.18823 46.0942 3.95119 45.5354 2.63874C45.617 2.83969 45.7049 3.04063 45.7865 3.24157C45.5981 2.78945 45.4223 2.32476 45.2716 1.86011C44.9325 0.798876 43.9843 0.0139546 42.8478 0.0139546H40.2858H34.1382H26.7346H20.3107C19.2746 0.0139546 18.2321 -0.0174432 17.1961 0.0139546H17.1521C16.0092 0.0139546 15.0673 0.798888 14.7283 1.86011C14.5776 2.33108 14.408 2.78948 14.2133 3.24157C14.295 3.04063 14.3829 2.83969 14.4645 2.63874C13.9056 3.95119 13.1835 5.18189 12.3169 6.31854C12.4488 6.14899 12.5807 5.97945 12.7126 5.8099C11.846 6.92766 10.8412 7.92613 9.72354 8.79272C9.89309 8.66085 10.0626 8.52897 10.2322 8.39711C9.10186 9.26368 7.86483 9.97952 6.55869 10.5384C6.75963 10.4567 6.96058 10.3688 7.16152 10.2872C6.42054 10.5949 5.66696 10.8335 4.90085 11.0658C3.83961 11.3861 3.05469 12.3657 3.05469 13.4897V21.0627C3.05469 22.394 3.05469 23.7253 3.14888 25.0565C3.34982 27.7629 3.80823 30.4631 4.568 33.0691C6.07508 38.2433 8.68736 43.0095 12.1536 47.1225C14.8475 50.3188 18.0939 52.9059 21.6105 55.1352C23.9276 56.6046 26.2447 58.074 28.5619 59.5434C28.6184 59.5811 28.6812 59.6188 28.7377 59.6564C29.8492 60.3597 31.5572 59.9265 32.1726 58.7522C32.8256 57.5089 32.4551 56.0708 31.2683 55.3173C30.138 54.6014 29.0076 53.8856 27.8836 53.1697C26.4393 52.2529 25.0013 51.3424 23.557 50.4256C22.546 49.7851 21.5601 49.1007 20.6057 48.3722C20.7752 48.5041 20.9447 48.636 21.1143 48.7678C18.7406 46.928 16.6056 44.7929 14.7657 42.4193C14.8976 42.5888 15.0295 42.7584 15.1613 42.9279C13.29 40.4977 11.7328 37.8352 10.5333 35.0095C10.6149 35.2104 10.7029 35.4113 10.7845 35.6123C9.55999 32.7049 8.72475 29.6531 8.30403 26.5258C8.33543 26.7456 8.36683 26.9717 8.39195 27.1915C8.12192 25.1569 8.07797 23.1223 8.07797 21.0815V15.1285V13.5146C7.46257 14.3247 6.84716 15.1285 6.23181 15.9385C8.39822 15.2854 10.4956 14.4189 12.3355 13.0939C14.5145 11.524 16.3732 9.58991 17.7546 7.27905C18.5145 6.01058 19.1236 4.62912 19.5756 3.22251C18.7656 3.83791 17.9618 4.45332 17.1518 5.06867H19.7138H25.8614H33.265H39.6889C40.725 5.06867 41.7674 5.09379 42.8035 5.06867H42.8475C42.0374 4.45328 41.2336 3.83786 40.4236 3.22251C41.9998 8.13932 45.579 12.4156 50.2762 14.626C51.4065 15.1598 52.5682 15.5742 53.7676 15.9385C53.1522 15.1284 52.5367 14.3246 51.9214 13.5146V17.7345V22.419C51.9214 24.014 51.8147 25.6089 51.6074 27.1913C51.6388 26.9716 51.6702 26.7455 51.6953 26.5257C51.2683 29.6467 50.4332 32.7047 49.2149 35.6122C49.2965 35.4112 49.3844 35.2103 49.4661 35.0093C48.2667 37.8351 46.7093 40.4976 44.838 42.9278C44.9699 42.7582 45.1018 42.5887 45.2336 42.4192C43.3938 44.7928 41.2587 46.9279 38.8851 48.7677C39.0546 48.6359 39.2242 48.504 39.3937 48.3721C37.9871 49.4585 36.4925 50.3941 34.9981 51.3486C33.3402 52.4036 31.6825 53.4522 30.0248 54.5072C29.5978 54.7772 29.1645 55.0535 28.7375 55.3236C28.1912 55.6689 27.7579 56.1901 27.5821 56.8243C27.4188 57.4272 27.4942 58.2246 27.8333 58.7584C28.5492 59.8636 30.0813 60.4037 31.2682 59.6501L31.2683 59.6501Z" fill="url(#paint0_linear_1538_2855)"></path><path d="M17.2023 29.8789C19.3499 32.0265 21.4975 34.174 23.6514 36.3279C23.9591 36.6356 24.2668 36.9433 24.5682 37.2447C25.529 38.2055 27.1616 38.2055 28.1224 37.2447C29.7802 35.5869 31.4443 33.9228 33.102 32.2651C35.7268 29.6403 38.3579 27.0092 40.9828 24.3843C41.5856 23.7815 42.1948 23.1723 42.7976 22.5695C43.727 21.6401 43.796 19.9321 42.7976 19.0153C41.7929 18.0922 40.2356 18.0232 39.2434 19.0153C37.5856 20.6732 35.9215 22.3372 34.2638 23.9949C31.639 26.6197 29.0079 29.2508 26.383 31.8757C25.7802 32.4786 25.171 33.0877 24.5682 33.6906H28.1224C25.9748 31.543 23.8272 29.3954 21.6733 27.2415C21.3656 26.9338 21.0579 26.6261 20.7565 26.3247C19.8271 25.3953 18.1191 25.3263 17.2023 26.3247C16.2792 27.3294 16.2102 28.8805 17.2023 29.8789Z" fill="url(#paint1_linear_1538_2855)"></path><defs><linearGradient id="paint0_linear_1538_2855" x1="47.0422" y1="30" x2="3.65347" y2="30" gradientUnits="userSpaceOnUse"><stop offset="0.294574" stop-color="#EE5E55"></stop><stop offset="1" stop-color="#EB7F64"></stop></linearGradient><linearGradient id="paint1_linear_1538_2855" x1="38.5524" y1="28.1311" x2="16.7843" y2="28.1311" gradientUnits="userSpaceOnUse"><stop offset="0.294574" stop-color="#EE5E55"></stop><stop offset="1" stop-color="#EB7F64"></stop></linearGradient></defs></svg>