<svg xmlns="http://www.w3.org/2000/svg" width="60" height="60" viewBox="0 0 60 60" fill="none"><path d="M45.2038 0H14.7958C10.3221 0 6.68213 3.63996 6.68213 8.11372V60H38.3188C46.5889 60 53.3176 53.2707 53.3176 44.9998V8.11518C53.3176 3.64142 49.6776 0.00146132 45.2038 0.00146132V0ZM49.2267 44.9991C49.2267 51.0149 44.3335 55.9087 38.3182 55.9087H10.7724V8.11328C10.7724 5.89546 12.5774 4.09039 14.7953 4.09039H45.2047C47.4225 4.09039 49.2276 5.89546 49.2276 8.11328L49.227 44.9979L49.2267 44.9991Z" fill="url(#paint0_linear_1538_2849)"></path><path d="M15.0693 14.8643H44.9324V18.9551H15.0693V14.8643Z" fill="url(#paint1_linear_1538_2849)"></path><path d="M15.0693 27.9541H44.9324V32.0449H15.0693V27.9541Z" fill="url(#paint2_linear_1538_2849)"></path><path d="M15.0693 45.1357H41.835C43.546 45.1357 44.9328 43.7489 44.9328 42.038V41.0449H15.0698L15.0693 45.1357Z" fill="url(#paint3_linear_1538_2849)"></path><defs><linearGradient id="paint0_linear_1538_2849" x1="44.7478" y1="30" x2="7.2003" y2="30" gradientUnits="userSpaceOnUse"><stop offset="0.294574" stop-color="#EE5E55"></stop><stop offset="1" stop-color="#EB7F64"></stop></linearGradient><linearGradient id="paint1_linear_1538_2849" x1="39.4447" y1="16.9097" x2="15.4011" y2="16.9097" gradientUnits="userSpaceOnUse"><stop offset="0.294574" stop-color="#EE5E55"></stop><stop offset="1" stop-color="#EB7F64"></stop></linearGradient><linearGradient id="paint2_linear_1538_2849" x1="39.4447" y1="29.9995" x2="15.4011" y2="29.9995" gradientUnits="userSpaceOnUse"><stop offset="0.294574" stop-color="#EE5E55"></stop><stop offset="1" stop-color="#EB7F64"></stop></linearGradient><linearGradient id="paint3_linear_1538_2849" x1="39.4451" y1="43.0903" x2="15.4012" y2="43.0903" gradientUnits="userSpaceOnUse"><stop offset="0.294574" stop-color="#EE5E55"></stop><stop offset="1" stop-color="#EB7F64"></stop></linearGradient></defs></svg>