<svg xmlns="http://www.w3.org/2000/svg" width="60" height="60" viewBox="0 0 60 60" fill="none"><path d="M28.417 1.9084C28.5742 3.10846 27.728 4.20862 26.5278 4.3653C25.3278 4.522 24.2276 3.67627 24.0709 2.47559C23.9142 1.27553 24.76 0.175376 25.9601 0.0186925C27.1607 -0.138005 28.2603 0.707724 28.417 1.9084Z" fill="url(#paint0_linear_1542_2863)"></path><path d="M42.9029 3.77991C43.0596 4.98052 42.2139 6.08069 41.0132 6.23737C39.8131 6.39407 38.713 5.5478 38.5563 4.34766C38.3996 3.14753 39.2453 2.04745 40.446 1.89076C41.6461 1.73407 42.7462 2.57979 42.9029 3.77991Z" fill="url(#paint1_linear_1542_2863)"></path><path d="M14.6673 6.35962C15.4032 7.32055 15.2203 8.6959 14.2594 9.43179C13.2985 10.1677 11.9226 9.98487 11.1867 9.02394C10.4512 8.06301 10.6336 6.6871 11.5951 5.95177C12.556 5.21579 13.9314 5.39815 14.6673 6.35962" fill="url(#paint2_linear_1542_2863)"></path><path d="M5.00814 17.0951C6.12631 17.5592 6.6559 18.8417 6.19184 19.9593C5.72721 21.0775 4.44469 21.6071 3.32708 21.143C2.20946 20.6784 1.67932 19.3959 2.14395 18.2783C2.60803 17.1606 3.89053 16.6305 5.00814 17.0951Z" fill="url(#paint3_linear_1542_2863)"></path><path d="M53.7966 11.5013C53.6399 11.3446 53.5618 11.1884 53.4051 10.9531L50.9007 15.1021C58.7279 26.2947 56.4582 41.7928 45.4998 50.1679C34.3071 58.7781 18.1828 56.5865 9.57293 45.3933C6.83314 41.7925 5.11116 37.5661 4.48554 33.1831C4.32884 31.9306 3.23306 31.0696 1.98056 31.2263C0.728081 31.383 -0.132924 32.4787 0.0237597 33.7312C0.728081 38.9755 2.76356 43.9067 5.97229 48.1333C10.825 54.5519 17.9479 58.6216 25.9316 59.7174C33.9155 60.8132 41.8208 58.6997 48.2391 53.7688C54.579 48.8376 58.6493 41.7147 59.7451 33.7312C60.7623 25.7479 58.6493 17.842 53.7962 11.502L53.7966 11.5013Z" fill="url(#paint4_linear_1542_2863)"></path><path d="M26.323 45.2364C26.5578 45.7059 27.106 46.0193 27.5755 46.0193C28.045 46.0193 28.5146 45.7846 28.828 45.315L48.7873 12.4408L51.2136 8.44907L54.2662 3.43966C54.8925 2.34388 54.0315 1.24805 53.0137 1.24805C52.6223 1.24805 52.3094 1.40475 51.996 1.7176L48.3953 5.86601L45.4208 9.23142L27.4965 29.8952L17.321 22.929C17.0863 22.7723 16.7729 22.6942 16.5381 22.6942C15.5204 22.6942 14.738 23.79 15.2856 24.8077L26.323 45.2364Z" fill="url(#paint5_linear_1542_2863)"></path><defs><linearGradient id="paint0_linear_1542_2863" x1="27.6303" y1="2.192" x2="24.101" y2="2.192" gradientUnits="userSpaceOnUse"><stop offset="0.294574" stop-color="#EE5E55"></stop><stop offset="1" stop-color="#EB7F64"></stop></linearGradient><linearGradient id="paint1_linear_1542_2863" x1="42.116" y1="4.06406" x2="38.5863" y2="4.06406" gradientUnits="userSpaceOnUse"><stop offset="0.294574" stop-color="#EE5E55"></stop><stop offset="1" stop-color="#EB7F64"></stop></linearGradient><linearGradient id="paint2_linear_1542_2863" x1="14.3134" y1="7.69168" x2="10.7841" y2="7.69168" gradientUnits="userSpaceOnUse"><stop offset="0.294574" stop-color="#EE5E55"></stop><stop offset="1" stop-color="#EB7F64"></stop></linearGradient><linearGradient id="paint3_linear_1542_2863" x1="5.55428" y1="19.1189" x2="2.0243" y2="19.1189" gradientUnits="userSpaceOnUse"><stop offset="0.294574" stop-color="#EE5E55"></stop><stop offset="1" stop-color="#EB7F64"></stop></linearGradient><linearGradient id="paint4_linear_1542_2863" x1="48.971" y1="35.4765" x2="0.671917" y2="35.4765" gradientUnits="userSpaceOnUse"><stop offset="0.294574" stop-color="#EE5E55"></stop><stop offset="1" stop-color="#EB7F64"></stop></linearGradient><linearGradient id="paint5_linear_1542_2863" x1="47.2434" y1="23.6337" x2="15.5429" y2="23.6337" gradientUnits="userSpaceOnUse"><stop offset="0.294574" stop-color="#EE5E55"></stop><stop offset="1" stop-color="#EB7F64"></stop></linearGradient></defs></svg>