<svg xmlns="http://www.w3.org/2000/svg" width="60" height="60" viewBox="0 0 60 60" fill="none"><path fill-rule="evenodd" clip-rule="evenodd" d="M34.0851 9.963L34.6752 13.2892C35.3476 13.4787 36.0098 13.7078 36.6431 13.9726L36.7204 14.0092C37.3436 14.2699 37.9447 14.5662 38.5203 14.8886L41.2954 12.9427C41.8038 12.5888 42.4732 12.6314 42.9304 13.0039C43.7105 13.6005 44.4441 14.2368 45.1064 14.8987C45.7958 15.5896 46.4501 16.3377 47.0367 17.1128C47.4238 17.6247 47.3872 18.3261 46.9976 18.8014L45.1164 21.4874C45.4559 22.092 45.7642 22.7218 46.0315 23.3695L46.0635 23.4553C46.3097 24.0665 46.5288 24.6922 46.7078 25.333L50.045 25.9231C50.6452 26.0234 51.0824 26.5097 51.1616 27.0818L51.312 28.5343L51.3622 30.0003C51.3266 31.0808 51.2724 31.864 51.1576 32.9369C51.0754 33.5381 50.6066 33.9888 50.038 34.0856L46.7118 34.6757C46.5223 35.3481 46.2932 36.0104 46.0284 36.6437L45.9928 36.7219C45.7311 37.3441 45.4353 37.9452 45.1124 38.5209L47.0583 41.2971C47.4122 41.805 47.3696 42.4738 46.9981 42.931C46.4004 43.7112 45.7647 44.4447 45.1023 45.107C44.4299 45.7784 43.6819 46.4256 42.8882 47.0308C42.4084 47.3918 41.7616 47.3883 41.2927 47.0629L38.5131 45.117C37.9084 45.4564 37.2787 45.7648 36.6309 46.032L36.5452 46.0641C35.934 46.3113 35.3083 46.5294 34.668 46.7084L34.0774 50.0456C33.9771 50.6458 33.4907 51.083 32.9192 51.1612L31.4657 51.3121L29.9996 51.3622C28.9191 51.3256 28.1359 51.2725 27.063 51.1577C26.4618 51.0754 26.0111 50.6066 25.9143 50.0381L25.3242 46.7119C24.6518 46.5224 23.9896 46.2933 23.3563 46.0285L23.2791 45.9919C22.6558 45.7312 22.0547 45.4349 21.4792 45.113L18.704 47.0578C18.2132 47.4018 17.5654 47.3692 17.1111 47.0297C16.332 46.4466 15.584 45.7918 14.893 45.1019C14.2207 44.4295 13.5745 43.6815 12.9693 42.8877C12.6083 42.4079 12.6108 41.7611 12.9372 41.2923L14.883 38.5127C14.5436 37.908 14.2352 37.2783 13.967 36.6305L13.9354 36.5447C13.6877 35.9346 13.4701 35.3078 13.2911 34.6676L9.95393 34.0769C9.35377 33.9766 8.91658 33.4903 8.83736 32.9187L8.68694 31.4653L8.6368 29.9992C8.6724 28.9187 8.72655 28.1355 8.84137 27.0626C8.9236 26.4614 9.39239 26.0107 9.96096 25.9149L13.2871 25.3243C13.4767 24.6519 13.7058 23.9896 13.9705 23.3574L14.0061 23.2792C14.2678 22.6559 14.5637 22.0548 14.8866 21.4792L12.9407 18.7041C12.5968 18.2132 12.6293 17.5665 12.9688 17.1112C13.5519 16.3321 14.2067 15.5841 14.8967 14.8945C15.5876 14.2036 16.3346 13.5489 17.1108 12.9622C17.6227 12.5766 18.3241 12.6122 18.7994 13.0023L21.4853 14.8829C22.09 14.5435 22.7197 14.2351 23.3665 13.9679L23.4532 13.9358C24.0644 13.6896 24.6901 13.4705 25.3304 13.2925L25.9211 9.9543C26.0213 9.35414 26.5077 8.91694 27.0792 8.83972L28.5327 8.6888L29.9988 8.63867C31.0793 8.67527 31.8625 8.72791 32.9354 8.84222C33.5366 8.92445 33.9873 9.39325 34.0841 9.96182L34.0851 9.963ZM24.8672 2.97668C24.1903 3.10303 23.5385 2.65679 23.4122 1.97993C23.2859 1.30307 23.732 0.651208 24.4089 0.524908C30.7509 -0.679915 37.2559 0.227588 42.9561 2.95209C48.5124 5.60838 53.3057 9.99604 56.4384 15.8414C60.3498 23.1416 60.9319 31.3363 58.7122 38.6808C56.813 44.9646 52.8576 50.6308 47.1799 54.5877L50.1851 55.0114C50.8675 55.1056 51.3448 55.7354 51.2506 56.4183C51.1563 57.1007 50.5266 57.578 49.8437 57.4837L43.4044 56.5762C43.0234 56.5211 42.6709 56.2919 42.4758 55.9259C42.2763 55.5509 42.2873 55.1202 42.4683 54.7687L45.264 48.9391C45.5603 48.3194 46.3049 48.0572 46.9247 48.3535C47.5444 48.6498 47.8066 49.3944 47.5103 50.0142L46.5857 51.942C51.3388 48.3561 54.6695 43.4115 56.3181 37.9591C58.3557 31.219 57.8233 23.7041 54.2399 17.0143C51.3685 11.6565 46.9753 7.63494 41.8823 5.20019C36.6579 2.70228 30.6905 1.87299 24.869 2.9785L24.8672 2.97668ZM9.81765 4.99223C9.13527 4.89796 8.65794 4.26823 8.75221 3.58533C8.84647 2.90295 9.4762 2.42563 10.1591 2.51989L16.5968 3.4274C17.2792 3.52166 17.7565 4.15139 17.6623 4.83429C17.6402 4.99573 17.5876 5.14565 17.5119 5.27901L14.7372 11.0639C14.4409 11.6836 13.6963 11.9459 13.0766 11.6495C12.4569 11.3532 12.1946 10.6087 12.491 9.9889L13.4145 8.06256C8.66142 11.6485 5.33166 16.5921 3.68269 22.0455C1.64507 28.7846 2.17748 36.2992 5.76087 42.989C8.63023 48.3458 13.0255 52.3674 18.1195 54.8021C23.3439 57.299 29.3113 58.1283 35.1315 57.0233C35.8084 56.8969 36.4603 57.3432 36.5866 58.02C36.7129 58.6969 36.2667 59.3488 35.5898 59.4751C29.2498 60.6799 22.7454 59.7729 17.0439 57.0489C11.4865 54.3926 6.69239 50.005 3.56157 44.1609C-0.349765 36.8597 -0.931853 28.6646 1.28778 21.3215C3.18755 15.0377 7.1424 9.37147 12.8202 5.41456L9.81641 4.99089L9.81765 4.99223ZM30.0001 17.2385C33.5088 17.2385 36.71 18.6725 39.018 20.9798C41.3313 23.2941 42.7639 26.4919 42.7639 30.0006C42.7639 33.5204 41.3289 36.7187 39.0216 39.026C36.7183 41.3293 33.5204 42.7633 30.0007 42.7633C26.481 42.7633 23.2907 41.3319 20.9798 39.026C18.6679 36.7111 17.2376 33.5202 17.2376 30.0006C17.2376 26.481 18.6726 23.2826 20.9754 20.9798C23.2828 18.6723 26.4811 17.2385 30.0007 17.2385H30.0001ZM37.0977 22.9011C35.2902 21.0902 32.7762 19.9635 30.0001 19.9635C27.2284 19.9635 24.7125 21.0901 22.8995 22.9041C21.0895 24.7131 19.9629 27.2284 19.9629 30.0006C19.9629 32.7723 21.0895 35.2908 22.8995 37.1007C24.7105 38.9116 27.2285 40.0383 30.0001 40.0383C32.7716 40.0383 35.2876 38.9117 37.0977 37.1007C38.9112 35.2882 40.0378 32.7727 40.0378 30.0006C40.0378 27.2245 38.9112 24.7105 37.0977 22.9006V22.9011ZM33.2986 26.7026C32.4583 25.8628 31.2876 25.3398 30.0006 25.3398C28.7136 25.3398 27.5429 25.8628 26.7025 26.7026C25.8622 27.5439 25.3398 28.7136 25.3398 30.0006C25.3398 31.2887 25.8617 32.4584 26.7025 33.2987C27.5398 34.136 28.7136 34.6614 30.0006 34.6614C31.2876 34.6614 32.4619 34.136 33.2986 33.2987C34.136 32.4614 34.6614 31.2882 34.6614 30.0006C34.6614 28.7382 34.157 27.5869 33.3487 26.7502L33.2986 26.7026Z" fill="url(#paint0_linear_13026_3822)"></path><defs><linearGradient id="paint0_linear_13026_3822" x1="48.9743" y1="30" x2="0.666664" y2="30" gradientUnits="userSpaceOnUse"><stop offset="0.294574" stop-color="#EE5E55"></stop><stop offset="1" stop-color="#EB7F64"></stop></linearGradient></defs></svg>