<svg xmlns="http://www.w3.org/2000/svg" width="60" height="60" viewBox="0 0 60 60" fill="none"><path d="M42.7245 2.86978C41.7883 2.32909 40.5913 2.64995 40.0507 3.58614L37.441 8.10648C36.9003 9.04268 37.2212 10.2397 38.1574 10.7803C39.0936 11.321 40.2906 11.0002 40.8312 10.064L43.4409 5.54362C43.9816 4.60742 43.6607 3.41039 42.7245 2.86978ZM22.9209 0.265137C22.4871 0.0148216 21.9569 -0.0734716 21.4349 0.0662504C20.3908 0.346149 19.7686 1.42339 20.0486 2.46792L21.3995 7.50943C21.6793 8.55348 22.7566 9.17567 23.8011 8.89569C24.8452 8.61579 25.4674 7.53855 25.1874 6.49402L23.8365 1.45252C23.6964 0.930483 23.355 0.515406 22.9213 0.264671L22.9209 0.265137ZM54.8814 18.7184C54.4477 18.4681 53.9175 18.3798 53.3954 18.5195L48.3539 19.8704C47.3099 20.1503 46.6877 21.2275 46.9677 22.272C47.2476 23.3161 48.3248 23.9383 49.3694 23.6583L54.4108 22.3075C55.4549 22.0276 56.0771 20.9503 55.7971 19.9058C55.6574 19.3837 55.3156 18.9687 54.8819 18.7179L54.8814 18.7184ZM36.8523 13.0411C29.0846 8.55629 18.1066 10.2771 13.1653 18.8357C10.0886 24.1643 10.2056 28.8362 10.5497 32.5819C10.8938 36.3275 11.3284 38.9815 9.69403 41.8119L5.77898 48.5924C4.49279 50.8202 5.34706 53.6165 7.4507 54.8313L15.3613 59.3984C17.4654 60.6132 20.314 59.9546 21.6002 57.7267L25.5153 50.9463C27.1491 48.1158 29.6646 47.1655 33.0809 45.5903C36.4966 44.0155 40.6014 41.7809 43.6781 36.4517C48.6194 27.8931 44.6206 17.5243 36.8525 13.0409L36.8523 13.0411ZM34.8948 16.4314C40.9088 19.9036 44.0773 27.9301 40.2871 34.4955C37.6987 38.9781 34.715 40.5387 31.4576 42.0411C28.68 43.3218 25.5523 44.5434 23.2449 47.3761L13.9216 41.9933C15.2209 38.5784 14.7153 35.2588 14.4354 32.2131C14.1073 28.6408 13.9671 25.2765 16.5549 20.7935C20.3451 14.2287 28.8807 12.9594 34.8951 16.4315L34.8948 16.4314ZM7.07271 12.4231C6.13651 11.8824 4.93948 12.2033 4.39886 13.1395C3.85824 14.0757 4.17904 15.2727 5.11523 15.8133L9.63557 18.423C10.5718 18.9637 11.7688 18.6428 12.3094 17.7066C12.8501 16.7704 12.5292 15.5734 11.593 15.0328L7.07271 12.4231ZM47.7566 35.9121C46.8204 35.3714 45.6234 35.6922 45.0827 36.6284C44.542 37.5646 44.8629 38.7616 45.7991 39.3023L50.3194 41.9119C51.2556 42.4526 52.4527 42.1317 52.9933 41.1955C53.534 40.2593 53.2131 39.0623 52.2769 38.5217L47.7566 35.9121ZM12.1049 45.4647L21.146 50.6846L20.4934 51.8146L11.4522 46.5948L12.1049 45.4647ZM9.49524 49.985L18.5364 55.2049L18.2101 55.7697C17.9966 56.1393 17.6002 56.1707 17.3189 56.0087L9.40795 51.4415C9.12667 51.279 8.95601 50.9195 9.169 50.5504L9.49533 49.9855L9.49524 49.985Z" fill="url(#paint0_linear_1538_2859)"></path><defs><linearGradient id="paint0_linear_1538_2859" x1="46.3586" y1="30" x2="4.71098" y2="30" gradientUnits="userSpaceOnUse"><stop offset="0.294574" stop-color="#EE5E55"></stop><stop offset="1" stop-color="#EB7F64"></stop></linearGradient></defs></svg>