<svg xmlns="http://www.w3.org/2000/svg" width="60" height="60" viewBox="0 0 60 60" fill="none"><path fill-rule="evenodd" clip-rule="evenodd" d="M34.9081 17.0474C34.1242 16.2572 33.472 15.3371 32.988 14.3354C32.5599 13.4474 32.2639 12.4951 32.1161 11.5193C31.9621 10.513 31.9621 9.48531 32.1161 8.47902C32.2639 7.50311 32.5599 6.55089 32.988 5.66289C33.93 3.70711 35.5139 2.08516 37.4482 1.09498C38.3982 0.607036 39.4241 0.274886 40.4799 0.115068C40.8982 0.0489965 41.3201 0.0190855 41.7441 0.00301339C42 -0.00100446 42 -0.00100446 42.2558 0.00301339C42.6799 0.0190843 43.1017 0.0489954 43.52 0.115068C44.5758 0.274886 45.6017 0.607036 46.5517 1.09498C48.4861 2.08517 50.07 3.70699 51.0119 5.66289C51.44 6.55084 51.736 7.50313 51.8838 8.47902C52.0378 9.48527 52.0378 10.513 51.8838 11.5193C51.736 12.4952 51.44 13.4474 51.0119 14.3354C50.49 15.4193 49.77 16.4073 48.8981 17.2372C48.8659 17.2671 48.832 17.2993 48.7999 17.3292C51.0097 18.2355 53.036 19.5833 54.7258 21.2734C56.6218 23.1712 58.0879 25.4896 58.9799 28.0194C59.4281 29.2855 59.7299 30.6011 59.8821 31.9356C59.9518 32.5454 59.9862 33.1552 59.9982 33.7672L60 33.9873C59.992 34.1994 59.9701 34.4034 59.9058 34.6074C59.7281 35.1632 59.3058 35.6212 58.7679 35.8454C58.5201 35.9494 58.2661 35.9895 58 35.9994H38.9416C38.7295 36.2355 38.5077 36.4654 38.2778 36.6833C38.0416 36.9092 37.7956 37.1253 37.5438 37.3293L37.5617 37.3355C40.6399 38.4632 43.4497 40.2896 45.7376 42.6333C47.9676 44.9172 49.6939 47.6815 50.7538 50.6914C51.2997 52.2373 51.6698 53.8476 51.8555 55.4776C51.9417 56.2213 51.9837 56.9673 51.9979 57.7155L51.9997 57.9874C51.9917 58.2236 51.9636 58.4495 51.8819 58.6736C51.6837 59.2294 51.2399 59.6753 50.6859 59.8776C50.4618 59.9593 50.2377 59.9896 49.9997 59.9994H9.99953C9.76336 59.9896 9.53747 59.9593 9.31336 59.8776C8.75934 59.6753 8.31559 59.2293 8.11736 58.6736C8.03566 58.4495 8.00753 58.2236 7.9995 57.9874C8.00129 57.7075 8.00754 57.4294 8.01558 57.1512C8.04951 56.4053 8.10933 55.6655 8.21335 54.9276C8.43969 53.3074 8.84951 51.7133 9.42947 50.1856C10.5317 47.2896 12.2554 44.6373 14.4456 42.4453C16.6376 40.2552 19.2899 38.5315 22.1859 37.4292C22.2756 37.3953 22.3658 37.3613 22.4555 37.3292C22.2037 37.1252 21.9577 36.9091 21.7216 36.6832C21.4917 36.4654 21.2698 36.2354 21.0577 35.9993H1.99936C1.78731 35.9912 1.58329 35.9671 1.37927 35.9011C0.721233 35.6854 0.209208 35.1292 0.0511498 34.4551C-0.000635552 34.2274 -0.00242185 33.9993 0.0011496 33.7672C0.00338172 33.5373 0.0114178 33.3051 0.0234711 33.0752C0.147575 30.6211 0.77928 28.2011 1.87354 26.0011C2.96551 23.8034 4.51149 21.8355 6.38556 20.2511C7.82534 19.0333 9.45517 18.0436 11.1994 17.3293C11.1673 17.2994 11.1333 17.2672 11.1012 17.2373C10.2293 16.4074 9.50919 15.4195 8.98736 14.3355C8.55923 13.4475 8.26325 12.4953 8.11548 11.5194C7.96145 10.5131 7.96145 9.48541 8.11548 8.47912C8.26325 7.50322 8.55923 6.551 8.98736 5.66299C9.92933 3.70721 11.5133 2.08526 13.4476 1.09508C14.3976 0.60714 15.4235 0.274989 16.4793 0.115171C16.8976 0.0491001 17.3195 0.0191892 17.7435 0.00311715C17.9993 -0.000900702 17.9993 -0.000900702 18.2551 0.00311715C18.6792 0.0191881 19.1011 0.0490989 19.5194 0.115171C20.5752 0.274989 21.6011 0.60714 22.551 1.09508C24.4854 2.08527 26.0693 3.7071 27.0113 5.66299C27.4394 6.55094 27.7354 7.50323 27.8832 8.47912C28.0372 9.48538 28.0372 10.5131 27.8832 11.5194C27.7354 12.4953 27.4394 13.4475 27.0113 14.3355C26.5273 15.3373 25.8751 16.2573 25.0912 17.0475C26.0251 16.6274 27.0153 16.3292 28.0251 16.1613C28.5773 16.0694 29.1332 16.0212 29.6912 16.0033C29.8452 15.9993 29.9992 15.9993 30.1532 15.9993C30.7131 16.0113 31.2711 16.0533 31.8233 16.1372C32.8871 16.2993 33.9273 16.6073 34.9072 17.0475L34.9081 17.0474ZM29.7679 40.0007C29.154 40.0127 28.5419 40.0471 27.9322 40.1167C26.6001 40.269 25.2862 40.5707 24.0219 41.0167C21.8322 41.7891 19.7982 42.9908 18.0621 44.5329C16.1679 46.2127 14.634 48.2891 13.5902 50.5949C13.0741 51.7351 12.6781 52.9311 12.412 54.153C12.2839 54.741 12.1901 55.3352 12.1178 55.9312L12.1098 55.9991H47.8905C47.8624 55.7508 47.8285 55.5049 47.7923 55.2571C47.6986 54.6669 47.5825 54.0812 47.4343 53.5008C47.1405 52.3651 46.7343 51.2571 46.2244 50.199C45.1584 47.987 43.6342 45.999 41.7762 44.391C40.1302 42.965 38.2302 41.841 36.1864 41.091C34.9284 40.6311 33.6204 40.3128 32.2944 40.1432C31.6864 40.0668 31.0761 40.0249 30.4663 40.0048C30.2324 40.0008 30.0002 39.999 29.7681 40.0008L29.7679 40.0007ZM29.896 19.9983C28.7321 20.0224 27.5861 20.2804 26.5339 20.7862C25.55 21.2621 24.6678 21.9403 23.9517 22.7644C23.4459 23.3483 23.024 24.0063 22.7058 24.7082C21.9879 26.2965 21.812 28.1082 22.204 29.8042C22.3661 30.5042 22.6218 31.1783 22.9661 31.8082C23.3638 32.5426 23.8781 33.2122 24.4822 33.7886C25.18 34.4542 26 34.9944 26.888 35.3703C27.8403 35.7725 28.8639 35.9846 29.896 35.9984C30.9001 36.0105 31.9019 35.8364 32.8403 35.4783C33.7139 35.1466 34.526 34.6582 35.234 34.0467C35.8639 33.5002 36.4081 32.8565 36.842 32.1427C37.23 31.5043 37.5282 30.8122 37.7219 30.0926C38.188 28.3783 38.0639 26.5225 37.3719 24.8863C37.0701 24.1742 36.6639 23.5081 36.1719 22.9122C35.4782 22.0702 34.6099 21.3703 33.638 20.8724C32.604 20.3425 31.4701 20.0564 30.3098 20.0041C30.1719 20.0001 30.0339 19.9983 29.896 19.9983V19.9983ZM41.3162 31.9983H55.8579C55.8258 31.7805 55.7901 31.5644 55.7499 31.3483C55.482 29.9984 55.0321 28.6965 54.3901 27.4783C52.754 24.3805 49.9557 21.9564 46.6499 20.7902C45.2119 20.2822 43.7039 20.0282 42.182 20C41.9998 19.9982 41.9998 19.9982 41.8177 20C40.9337 20.0161 40.0538 20.1103 39.19 20.2844C39.8958 21.1241 40.486 22.0603 40.9378 23.0603C42.0159 25.4425 42.2797 28.1603 41.6918 30.7063C41.5918 31.1442 41.4659 31.5742 41.3159 31.9983L41.3162 31.9983ZM20.8098 20.284C19.9459 20.1099 19.066 20.0157 18.1821 19.9996C18 19.9978 18 19.9978 17.8178 19.9996C16.296 20.0277 14.7879 20.2818 13.3499 20.7898C11.7517 21.3519 10.2619 22.2099 8.97 23.3036C7.46599 24.5737 6.23605 26.1599 5.37981 27.9318C4.77981 29.1777 4.37803 30.5018 4.16198 31.8657L4.14189 31.9979H18.6837C18.5015 31.48 18.3538 30.9519 18.2439 30.414C17.7596 28.0479 18.0037 25.5497 18.9439 23.3278C19.3957 22.2599 20.0038 21.2599 20.7417 20.3657C20.7635 20.338 20.7876 20.3099 20.8095 20.284L20.8098 20.284ZM17.8442 3.99934C17.5901 4.00961 17.3361 4.02746 17.0839 4.06764C16.454 4.16362 15.8401 4.36139 15.2719 4.65336C13.6201 5.49934 12.4201 7.1056 12.0942 8.93372C11.9781 9.58551 11.97 10.2574 12.07 10.9136C12.158 11.4958 12.3339 12.0654 12.5919 12.5958C12.9058 13.2476 13.3379 13.8417 13.862 14.3396C14.3861 14.8396 14.9999 15.2436 15.666 15.5258C16.4039 15.8378 17.1999 15.9976 17.9999 15.9976C18.8 15.9976 19.596 15.8378 20.3339 15.5258C21 15.2436 21.6138 14.8396 22.1379 14.3396C22.662 13.8418 23.0942 13.2476 23.408 12.5958C23.666 12.0654 23.8419 11.4958 23.9298 10.9136C24.0299 10.2574 24.0218 9.5855 23.9057 8.93372C23.5798 7.1056 22.3798 5.49931 20.728 4.65336C20.1597 4.36139 19.5458 4.16362 18.916 4.06764C18.6638 4.02746 18.4098 4.00961 18.1557 3.99934C17.9999 3.99755 18.0017 3.99755 17.8441 3.99934H17.8442ZM41.8443 3.99934C41.5902 4.00961 41.3362 4.02746 41.084 4.06764C40.4541 4.16362 39.8402 4.36139 39.272 4.65336C37.6202 5.49934 36.4202 7.1056 36.0943 8.93372C35.9782 9.58551 35.9702 10.2574 36.0702 10.9136C36.1581 11.4958 36.334 12.0654 36.592 12.5958C36.9059 13.2476 37.338 13.8417 37.8621 14.3396C38.3862 14.8396 39 15.2436 39.6661 15.5258C40.4041 15.8378 41.2001 15.9976 42.0001 15.9976C42.8001 15.9976 43.5961 15.8378 44.334 15.5258C45.0001 15.2436 45.6139 14.8396 46.138 14.3396C46.6621 13.8418 47.0943 13.2476 47.4081 12.5958C47.6661 12.0654 47.842 11.4958 47.93 10.9136C48.03 10.2574 48.0219 9.5855 47.9059 8.93372C47.58 7.1056 46.3799 5.49931 44.7281 4.65336C44.1598 4.36139 43.546 4.16362 42.9161 4.06764C42.6639 4.02746 42.4099 4.00961 42.1559 3.99934C42 3.99755 42.0018 3.99755 41.8442 3.99934H41.8443Z" fill="url(#paint0_linear_1531_4907)"></path><defs><linearGradient id="paint0_linear_1531_4907" x1="48.9744" y1="29.9997" x2="0.666664" y2="29.9997" gradientUnits="userSpaceOnUse"><stop offset="0.294574" stop-color="#EE5E55"></stop><stop offset="1" stop-color="#EB7F64"></stop></linearGradient></defs></svg>