<svg xmlns="http://www.w3.org/2000/svg" width="60" height="60" viewBox="0 0 60 60" fill="none"><path d="M54 0.5H6C2.96243 0.5 0.5 2.96243 0.5 6V54C0.5 57.0376 2.96243 59.5 6 59.5H54C57.0376 59.5 59.5 57.0376 59.5 54V6C59.5 2.96243 57.0376 0.5 54 0.5Z" fill="white" fill-opacity="0.8" stroke="#E7B6D4"></path><path fill-rule="evenodd" clip-rule="evenodd" d="M42.9288 19.665C43.1954 19.7216 43.3996 19.9574 43.3996 20.2413V22.7801C43.3996 23.0635 43.1954 23.2995 42.9288 23.3559V23.9852C43.1954 24.0418 43.3996 24.2776 43.3996 24.5614V26.0689C43.3996 26.3522 43.1959 26.5926 42.9288 26.6504V41.1147C42.9288 42.3709 41.9005 43.3996 40.6439 43.3996H30.1464C28.8897 43.3996 27.8615 42.3709 27.8615 41.1147V39.3229C27.8615 39.2052 27.9573 39.1089 28.0756 39.1089H28.2691C28.5875 39.1089 28.8891 39.0331 29.1557 38.8986C29.2242 38.8645 29.2995 38.8673 29.3642 38.9077C29.4292 38.9476 29.466 39.0136 29.466 39.0898V41.1147C29.466 41.485 29.7759 41.7949 30.1462 41.7949H40.6437C41.0171 41.7949 41.3238 41.4874 41.3238 41.1147V18.2849C41.3238 17.9115 41.0168 17.6047 40.6437 17.6047H38.8528L38.8447 17.6162C38.4928 18.1628 37.9302 18.4751 37.2794 18.4751H33.5159C32.8625 18.4751 32.2984 18.1652 31.9439 17.6141L31.9379 17.6048H30.1461C29.7758 17.6048 29.466 17.9146 29.466 18.2849V23.3786C29.466 23.4553 29.4292 23.5208 29.3642 23.5609C29.2992 23.6008 29.2242 23.6042 29.1556 23.5695C28.889 23.4355 28.5875 23.3598 28.269 23.3598H28.0755C27.9573 23.3598 27.8615 23.2635 27.8615 23.1457V18.2849C27.8615 17.0282 28.8897 16 30.1463 16H40.6439C41.9005 16 42.9287 17.0282 42.9287 18.2849V19.665L42.9288 19.665ZM21.4169 37.1311V32.665C21.4169 32.4034 21.2029 32.1898 20.9418 32.1898H16.4752C16.2136 32.1898 16 32.4034 16 32.665V37.1311C16 37.3932 16.2136 37.6068 16.4752 37.6068H20.9418C21.2029 37.6068 21.4169 37.3932 21.4169 37.1311ZM28.7445 37.1311V32.665C28.7445 32.4034 28.5305 32.1898 28.2689 32.1898H23.8028C23.5412 32.1898 23.3276 32.4034 23.3276 32.665V37.1311C23.3276 37.3932 23.5412 37.6068 23.8028 37.6068H28.2689C28.5305 37.6068 28.7445 37.3932 28.7445 37.1311ZM28.2689 24.8618H23.8023C23.5412 24.8618 23.3271 25.0754 23.3271 25.337V29.8036C23.3271 30.0652 23.5412 30.2787 23.8023 30.2787H28.2689C28.5305 30.2787 28.7445 30.0652 28.7445 29.8036V25.337C28.7445 25.0754 28.5305 24.8618 28.2689 24.8618ZM36.0717 29.8036V25.337C36.0717 25.0754 35.8581 24.8618 35.5965 24.8618H31.1299C30.8683 24.8618 30.6547 25.0754 30.6547 25.337V29.8036C30.6547 30.0652 30.8683 30.2788 31.1299 30.2788H35.5965C35.8581 30.2788 36.0717 30.0652 36.0717 29.8036Z" fill="#E06FB4"></path></svg>