<svg xmlns="http://www.w3.org/2000/svg" width="60" height="60" viewBox="0 0 60 60" fill="none"><path d="M54 0.5H6C2.96243 0.5 0.5 2.96243 0.5 6V54C0.5 57.0376 2.96243 59.5 6 59.5H54C57.0376 59.5 59.5 57.0376 59.5 54V6C59.5 2.96243 57.0376 0.5 54 0.5Z" fill="white" fill-opacity="0.8" stroke="#FFDCD3"></path><path d="M29.875 16C22.2105 16 16 22.2105 16 29.875C16 37.5395 22.2105 43.75 29.875 43.75C37.5395 43.75 43.75 37.5395 43.75 29.875C43.75 22.2105 37.5395 16 29.875 16ZM24.6118 35.805C24.4317 36.1118 24.1115 36.2786 23.778 36.2786C23.6112 36.2786 23.4445 36.2386 23.291 36.1452C22.8308 35.8783 22.6774 35.2913 22.9442 34.831L23.8914 33.2568C23.9914 33.09 24.1649 32.99 24.3583 32.99H24.4984C25.1855 32.99 25.6658 33.4035 25.8059 33.8038L24.6118 35.805ZM32.6301 32.7098L26.4263 32.7164H22.3038C21.7568 32.7164 21.3165 32.2628 21.3432 31.7159C21.3632 31.1955 21.8168 30.802 22.3371 30.802H25.3256L28.8677 24.7717L27.7204 22.8172C27.4602 22.3703 27.5736 21.7832 28.0139 21.5031C28.4808 21.2029 29.0946 21.3563 29.368 21.8233L29.9817 22.8706H29.9884L30.602 21.8233C30.8755 21.3563 31.4959 21.2029 31.9562 21.5031C32.3964 21.7832 32.5098 22.3703 32.2497 22.8172L31.1024 24.7717L29.9883 26.6729L27.5669 30.802V30.8087H31.1357C31.5827 30.8087 32.143 31.0488 32.3698 31.4357L32.3898 31.4757C32.5899 31.8159 32.7033 32.0494 32.7033 32.3896C32.6966 32.5764 32.6299 32.7098 32.6299 32.7098H32.6301ZM37.4463 32.7164H35.7653V32.7231L36.9927 34.811C37.2595 35.2646 37.1328 35.865 36.6725 36.1451C36.5191 36.2385 36.3457 36.2852 36.1722 36.2852C35.8387 36.2852 35.5185 36.1118 35.3384 35.8116L33.524 32.7231L32.3966 30.8019L30.9424 28.3137C30.5155 27.5866 30.4955 26.6794 30.9024 25.959C31.1892 25.452 31.4094 25.3186 31.4094 25.3186L34.6447 30.7953H37.4263C37.9466 30.7953 38.3935 31.1955 38.4202 31.7091C38.4403 32.2628 38 32.7164 37.4463 32.7164L37.4463 32.7164Z" fill="#F36F56"></path></svg>