<svg xmlns="http://www.w3.org/2000/svg" width="60" height="60" viewBox="0 0 60 60" fill="none"><path d="M54 0.5H6C2.96243 0.5 0.5 2.96243 0.5 6V54C0.5 57.0376 2.96243 59.5 6 59.5H54C57.0376 59.5 59.5 57.0376 59.5 54V6C59.5 2.96243 57.0376 0.5 54 0.5Z" fill="white" fill-opacity="0.8" stroke="#F1D79E"></path><path d="M20.5009 34.62L15.8809 30L30.8809 15H40.1209L20.5009 34.62ZM40.1209 28.8426H30.8809L27.42 32.3034L32.04 36.9234" fill="#D8B05A"></path><path d="M27.4219 41.5391L30.8814 44.9999H40.1214L32.0413 36.9209" fill="#D8B05A"></path><path d="M22.8125 36.9234L27.4247 32.3101L32.0369 36.9222L27.4247 41.5356L22.8125 36.9234Z" fill="#D8B05A"></path><path d="M27.4238 41.5356L32.0361 36.9233L32.6798 37.5671L28.0677 42.18L27.4238 41.5356Z" fill="url(#paint0_linear_205_623)"></path><defs><linearGradient id="paint0_linear_205_623" x1="29.3103" y1="38.7379" x2="30.621" y2="40.0485" gradientUnits="userSpaceOnUse"><stop offset="0.2" stop-opacity="0.15"></stop><stop offset="0.85" stop-color="#616161" stop-opacity="0.01"></stop></linearGradient></defs></svg>