<svg xmlns="http://www.w3.org/2000/svg" width="60" height="60" viewBox="0 0 60 60" fill="none"><path d="M54 0.5H6C2.96243 0.5 0.5 2.96243 0.5 6V54C0.5 57.0376 2.96243 59.5 6 59.5H54C57.0376 59.5 59.5 57.0376 59.5 54V6C59.5 2.96243 57.0376 0.5 54 0.5Z" fill="white" fill-opacity="0.8" stroke="#DFD3FE"></path><path d="M40.6687 20.6354C40.9993 20.3048 40.9993 19.7636 40.6687 19.433C40.3381 19.1023 39.7969 19.1023 39.4662 19.433L37.0757 21.8235L37.0958 21.8462C35.2571 20.0954 32.678 19 29.8307 19C27.0613 19 24.5435 20.035 22.7161 21.703L22.7183 21.7005L20.4505 19.4327C20.1198 19.1021 19.5786 19.1021 19.248 19.4327C18.9173 19.7633 18.9173 20.3046 19.248 20.6352L21.5664 22.9537L21.5872 22.9311C20.4286 24.4331 19.7443 26.2606 19.7443 28.2281V41.7891H39.9177L39.9175 28.2281C39.9175 26.3323 39.2837 24.5656 38.2014 23.0955L38.2049 23.0994L40.6687 20.6354ZM25.7172 27.2937C24.9543 27.2937 24.3357 26.675 24.3357 25.9122C24.3357 25.1493 24.9543 24.5307 25.7172 24.5307C26.4801 24.5307 27.0987 25.1493 27.0987 25.9122C27.0987 26.675 26.4803 27.2937 25.7172 27.2937ZM33.9447 27.2937C33.1818 27.2937 32.5632 26.675 32.5632 25.9122C32.5632 25.1493 33.1818 24.5307 33.9447 24.5307C34.7075 24.5307 35.3261 25.1493 35.3261 25.9122C35.3261 26.675 34.708 27.2937 33.9447 27.2937Z" fill="#9171E0"></path></svg>