<svg xmlns="http://www.w3.org/2000/svg" width="60" height="60" viewBox="0 0 60 60" fill="none"><path d="M54 0.5H6C2.96243 0.5 0.5 2.96243 0.5 6V54C0.5 57.0376 2.96243 59.5 6 59.5H54C57.0376 59.5 59.5 57.0376 59.5 54V6C59.5 2.96243 57.0376 0.5 54 0.5Z" fill="white" fill-opacity="0.8" stroke="#F3BCBC"></path><path fill-rule="evenodd" clip-rule="evenodd" d="M33.0193 17C44.4484 25.7014 40.7509 35.2992 40.7509 35.2992C40.7509 35.2992 44.0009 39.407 42.6873 43C42.6873 43 41.3466 40.4833 39.0975 40.4833C36.9306 40.4833 35.6581 43 31.2978 43C21.5908 42.9983 17 33.9177 17 33.9177C25.7476 40.3605 31.7192 35.7977 31.7192 35.7977C27.7787 33.2351 19.3968 20.9867 19.3968 20.9867C26.6956 27.9449 29.8509 29.7813 29.8509 29.7813C27.9686 28.0358 22.6875 19.5155 22.6875 19.5155C26.9125 24.3053 35.3079 30.9892 35.3079 30.9892C37.6912 23.5925 33.0193 17 33.0193 17Z" fill="#DA6060"></path></svg>