<svg xmlns="http://www.w3.org/2000/svg" width="60" height="60" viewBox="0 0 60 60" fill="none"><path d="M54 0.5H6C2.96243 0.5 0.5 2.96243 0.5 6V54C0.5 57.0376 2.96243 59.5 6 59.5H54C57.0376 59.5 59.5 57.0376 59.5 54V6C59.5 2.96243 57.0376 0.5 54 0.5Z" fill="white" fill-opacity="0.8" stroke="#AFE9E4"></path><path d="M45.0003 30.097C45.0003 27.7369 42.5911 26.0161 39.1496 24.9344C39.9363 21.4434 39.6412 18.4936 37.6254 17.3136C35.6095 16.1335 32.8561 17.3628 30.2501 19.772C27.6442 17.3628 24.8908 16.1335 22.8749 17.3136C20.859 18.4936 20.564 21.4437 21.3507 24.9344C17.909 26.0161 15.5 27.7369 15.5 30.097C15.5 32.4571 17.9092 34.178 21.3507 35.2597C20.564 38.7506 20.859 41.7004 22.8749 42.8804C23.4158 43.1754 24.0058 43.3229 24.5958 43.3229C26.3167 43.3229 28.3326 42.1921 30.2499 40.3729C32.1674 42.1429 34.1833 43.3229 35.9039 43.3229C36.4939 43.3229 37.0839 43.1754 37.6248 42.8804C39.6407 41.7004 39.9357 38.7503 39.149 35.2597C42.5908 34.178 44.9997 32.4571 44.9997 30.097H45.0003ZM36.6417 19.0339C37.6251 19.6239 37.8709 21.6398 37.2809 24.4424C36.1992 24.1966 35.0192 23.9999 33.8391 23.9015C33.1508 22.9182 32.4133 22.0332 31.6266 21.1973C33.7408 19.2797 35.6583 18.4439 36.6417 19.0339ZM36.2484 32.4571C36.445 32.9488 36.5925 33.3913 36.74 33.8829L35.265 34.178C35.4125 33.8829 35.6092 33.6371 35.7567 33.3421C35.9534 32.9979 36.1009 32.7029 36.2484 32.4571ZM34.085 32.3096C33.6425 33.0471 33.1999 33.7846 32.7574 34.4238C31.9216 34.473 31.1349 34.5221 30.2499 34.5221C29.3648 34.5221 28.5781 34.473 27.7423 34.4238C27.2998 33.7354 26.8573 33.0471 26.4148 32.3096C25.9722 31.572 25.5789 30.8345 25.2347 30.097C25.5789 29.3595 25.9722 28.622 26.4148 27.8844C26.8573 27.1469 27.2998 26.4094 27.7423 25.7702C28.529 25.721 29.3648 25.6719 30.2499 25.6719C31.1349 25.6719 31.9216 25.721 32.7574 25.7702C33.1999 26.4586 33.6425 27.1469 34.085 27.8844C34.5275 28.622 34.9208 29.3595 35.265 30.097C34.9208 30.8345 34.5275 31.572 34.085 32.3096ZM30.2499 37.6197C29.9057 37.2755 29.6107 36.8822 29.2665 36.4889H30.2499H31.2332C30.889 36.8822 30.594 37.2264 30.2499 37.6197ZM24.6939 33.2929C24.8414 33.5879 25.038 33.8338 25.1855 34.1288L23.7105 33.8338C23.858 33.3913 24.0055 32.8996 24.2022 32.4079C24.3989 32.7029 24.5464 32.9979 24.6939 33.2929ZM24.2514 27.7369C24.0547 27.2453 23.9072 26.8027 23.7597 26.3111L25.2347 26.0161C25.0872 26.3111 24.8905 26.5569 24.743 26.8519C24.5464 27.1961 24.3989 27.4911 24.2514 27.7369ZM30.2499 22.5743C30.594 22.9185 30.889 23.3118 31.2332 23.7052H30.2499H29.2665C29.6107 23.3118 29.9057 22.9676 30.2499 22.5743ZM35.8059 26.9011C35.6583 26.6061 35.4617 26.3602 35.3142 26.0652L36.7892 26.3602C36.6417 26.8027 36.4942 27.2944 36.2975 27.7861C36.1009 27.4911 35.9534 27.1961 35.8059 26.9011ZM23.8583 19.0342C24.055 18.9358 24.3008 18.8375 24.5958 18.8375C25.6775 18.8375 27.2017 19.6734 28.8734 21.1976C28.1359 22.0334 27.3984 22.9185 26.6609 23.9018C25.4808 24.0493 24.3008 24.1968 23.2191 24.4427C22.6291 21.6401 22.8749 19.6242 23.8583 19.0342ZM17.4664 30.0973C17.4664 28.9664 19.1382 27.7372 21.8424 26.8522C22.1866 27.9339 22.5799 29.0156 23.0716 30.0973C22.5799 31.179 22.1866 32.2607 21.8424 33.3424C19.1382 32.4574 17.4664 31.2282 17.4664 30.0973ZM23.8583 41.1604C22.8749 40.5704 22.6291 38.5545 23.2191 35.7519C24.3008 35.9977 25.4808 36.1944 26.6609 36.2927C27.3492 37.2761 28.0867 38.1611 28.8734 38.997C26.7592 40.9145 24.8417 41.7504 23.8583 41.1604ZM36.642 41.1604C35.6586 41.7504 33.7411 40.9145 31.6269 38.997C32.3644 38.1611 33.1019 37.2761 33.8394 36.2927C35.0194 36.1452 36.1995 35.9977 37.2812 35.7519C37.8712 38.5545 37.6254 40.5704 36.642 41.1604ZM38.6579 33.3429C38.3137 32.2612 37.9204 31.1795 37.4287 30.0978C37.9204 29.0161 38.3137 27.9345 38.6579 26.8528C41.3621 27.7378 43.0338 28.967 43.0338 30.0978C43.0338 31.2287 41.3621 32.4579 38.6579 33.3429Z" fill="#47C7BC"></path><path d="M33.2 30.0971C33.2 31.7264 31.8792 33.0471 30.2499 33.0471C28.6205 33.0471 27.2998 31.7264 27.2998 30.0971C27.2998 28.4677 28.6205 27.147 30.2499 27.147C31.8792 27.147 33.2 28.4677 33.2 30.0971Z" fill="#47C7BC"></path></svg>